<?xml version="1.0" encoding="UTF-8" standalone="no"?>
<!DOCTYPE svg PUBLIC "-//W3C//DTD SVG 1.1//EN" "http://www.w3.org/Graphics/SVG/1.1/DTD/svg11.dtd">
<svg width="100%" height="100%" viewBox="0 0 2541 988" version="1.1" xmlns="http://www.w3.org/2000/svg" xmlns:xlink="http://www.w3.org/1999/xlink" xml:space="preserve" xmlns:serif="http://www.serif.com/" style="fill-rule:evenodd;clip-rule:evenodd;stroke-linejoin:round;stroke-miterlimit:2;">
    <g transform="matrix(1,0,0,1,-3012,-2920)">
        <g transform="matrix(1,0,0,1.22163,-5277.47,0)">
            <g id="gameCrealab_logo" transform="matrix(1,0,0,0.818582,2345.44,-344.055)">
                <g id="Tracé_101" transform="matrix(6.57054,0,0,6.57054,5501.4,2061.69)">
                    <path d="M205.243,317.316L205.183,317.316L205.238,317.295C205.24,317.302 205.242,317.309 205.243,317.316ZM205.243,317.316C205.243,317.316 203.811,315.705 204.084,314.689C204.008,314.64 204.113,314.444 204.037,314.395C208.136,313.497 211.386,310.17 212.068,305.879L217.922,269.052C219.064,261.869 217.002,254.546 212.281,249.015C208.422,244.494 202.356,241.772 196.535,241.363C188.291,240.782 175.499,245.531 162.817,245.531C149.825,245.531 137.006,240.589 128.418,241.169C122.151,241.593 115.503,244.074 111.286,249.015C106.564,254.546 104.502,261.869 105.644,269.052C105.644,269.052 108.531,287.207 109.923,295.967C110.091,297.021 109.804,298.096 109.134,298.927C108.464,299.758 107.473,300.266 106.407,300.326C106.139,300.326 105.914,300.342 105.756,300.368C104.308,300.781 103.737,299.891 102.343,300.755C101.659,301.064 101.029,301.482 100.478,301.992C99.794,302.885 98.679,303.344 97.564,303.192C97.369,303.165 97.134,303.392 96.84,303.547C96.863,303.885 96.93,304.218 97.04,304.538C97.622,305.813 97.407,307.317 96.49,308.377C95.788,309.579 94.559,310.382 93.177,310.543C92.161,310.659 91.135,310.666 90.117,310.564C87.893,310.104 86.113,308.42 85.53,306.226C85.451,304.576 86.197,302.991 87.518,302C89.29,300.741 91.599,300.501 93.591,301.371C94.216,301.627 94.851,301.856 95.591,302.14C95.831,301.92 96.048,301.675 96.237,301.409C96.624,300.638 97.336,300.08 98.177,299.889C98.669,299.769 99.123,299.51 99.612,299.363C100.426,299.097 101.121,298.553 101.573,297.826C102.502,296.511 104.007,295.202 104.541,293.905C105.032,292.712 104.695,291.371 104.78,290.042C104.447,289.428 103.811,289.037 103.113,289.017C101.938,288.956 100.813,288.409 99.574,288.788C99.15,288.918 98.566,288.47 98.112,288.566C96.512,288.908 95.024,287.958 93.35,288.358C91.823,288.72 90.132,288.378 88.52,288.419C87.929,288.469 87.348,288.599 86.792,288.805C86.225,288.983 85.682,289.246 85.132,289.464C83.486,290.11 81.662,289.31 81.306,286.923C81.185,286.237 81.406,285.534 81.897,285.041C82.315,284.661 82.757,284.31 83.222,283.989C83.874,284.249 84.581,284.508 85.275,284.805C86.029,285.198 86.806,285.546 87.601,285.847C88.167,286.011 88.767,286.011 89.333,285.847C90.46,285.488 91.505,284.921 92.687,284.647C93.175,284.538 93.555,283.93 94.016,283.523C93.545,282.423 93.572,281.361 92.947,280.36C92.155,279.096 93.278,277.166 94.747,276.791C95.408,276.672 96.052,276.471 96.663,276.191C98.084,275.402 99.336,274.335 100.797,273.587C100.624,271.787 100.536,269.964 100.536,268.122C100.536,265.067 100.778,262.065 101.246,259.133C100.854,258.952 100.435,258.816 99.996,258.734C98.404,258.355 97.138,257.139 96.696,255.564C96.67,255.484 96.667,255.399 96.686,255.318C97.058,253.887 96.262,252.497 96.536,251.065C96.645,250.477 96.679,249.88 96.785,249.292C96.877,248.792 97.069,248.305 97.137,247.799C97.298,246.535 97.52,245.251 96.409,244.219C96.325,244.139 96.487,243.8 96.552,243.558L96.542,243.563L96.539,243.565C96.375,243.387 96.102,243.22 96.081,243.025C96.061,242.885 96.351,242.591 96.542,242.557C98.498,242.232 100.504,242.729 102.082,243.93C103.068,244.792 104.536,244.845 105.582,244.056C105.717,243.967 105.853,243.88 105.99,243.792C107.116,241.404 108.402,239.099 109.837,236.889C109.747,236.796 109.659,236.703 109.571,236.609C108.6,235.375 107.709,234.08 106.903,232.732C106.316,231.893 106.145,230.83 106.438,229.849C106.51,229.6 106.957,229.249 107.172,229.279C109.533,229.692 111.939,229.977 114.121,231.086C116.125,228.686 118.319,226.437 120.681,224.356C120.857,224.009 121.094,223.69 121.389,223.416C122.499,222.35 123.203,221.016 124.258,219.922C125.701,218.382 127.559,217.293 129.607,216.786C130.564,216.548 131.527,216.335 132.495,216.146C136.295,212.991 140.637,210.64 146.419,210.632C146.866,209.707 147.24,208.748 147.537,207.765C147.814,206.86 148.398,206.078 149.187,205.555C150.795,205.474 152.407,205.645 153.962,206.064C154.297,206.117 154.618,206.242 154.901,206.429C156.148,207.334 157.482,208.012 158.865,208.563C160.399,208.456 163.235,209.483 164.798,209.483C167.375,209.483 168.629,208.549 171.125,208.835C171.529,208.442 171.933,208.049 172.337,207.656L172.316,207.724L173.723,207.724C174.157,206.891 173.135,206.832 173.077,205.818C173.077,205.828 173.258,205.384 173.436,204.937C173.6,204.544 173.767,204.155 173.911,203.755C174.043,203.28 174.201,202.813 174.382,202.355C174.609,202.001 174.869,201.67 175.157,201.364C175.423,201.005 175.048,200.295 175.967,200.175C176.142,200.601 176.269,201.046 176.346,201.5C176.367,201.8 176.086,202.1 175.991,202.422C175.405,203.927 175.649,205.634 176.633,206.914C177.271,207.716 177.661,208.687 177.753,209.708C177.762,209.788 177.773,209.868 177.786,209.946C179.72,210.372 181.62,210.882 183.481,211.473C183.497,211.241 183.498,211.008 183.484,210.774C184.584,209.274 186.184,209.193 187.832,209.244C188.16,209.254 188.474,209.473 188.805,209.51C190.988,209.77 192.542,208.919 193.17,206.86C193.422,205.879 193.872,204.96 194.492,204.16C194.691,203.798 194.835,203.409 194.922,203.005C195.113,202.441 195.347,201.893 195.622,201.365C196.046,200.641 196.486,199.879 197.522,200.065C197.563,199.385 197.594,198.887 197.622,198.436C198.25,197.924 198.835,197.452 199.497,196.913C200.323,197.34 201.342,197.145 201.953,196.445C202.1,196.267 202.633,196.267 202.92,196.37C203.726,196.692 204.647,196.543 205.311,195.984C205.881,196.291 206.267,195.168 206.882,195.784C207.265,195.473 207.633,195.142 208.047,194.869C208.225,194.749 208.604,194.63 208.686,194.715C209.424,195.453 210.097,194.565 210.766,194.633C211.404,195.821 211.979,197.042 212.488,198.291C212.609,198.95 212.613,199.626 212.498,200.286C212.481,200.945 212.863,201.516 213.512,201.478C214.68,201.495 215.836,201.727 216.921,202.161C217.509,202.826 217.83,203.686 217.821,204.573C217.809,205.159 217.897,205.742 218.081,206.298C218.29,206.97 218.867,207.466 219.563,207.572C219.727,207.596 219.894,207.715 220.055,207.702C222.716,207.502 224.881,208.925 227.143,209.946C228.622,210.615 229.852,210.633 231.051,209.464C231.385,209.211 231.756,209.01 232.151,208.87C234.921,207.545 235.901,208.631 236.93,210.742C237.132,211.293 237.2,211.884 237.13,212.467C237.086,213.229 236.853,213.98 236.83,214.742C236.757,215.329 236.851,215.924 237.1,216.46C237.621,217.239 237.805,218.197 237.609,219.114C237.564,219.787 237.647,220.463 237.855,221.105C238.241,222.762 238.654,224.411 239.095,226.054C239.795,228.654 240.795,231.054 243.153,232.654C243.905,233.211 244.607,233.832 245.253,234.509C245.982,235.263 247.057,235.579 248.078,235.339C250.001,234.95 251.978,234.939 253.895,234.598C255.212,234.267 256.48,233.767 257.669,233.112C258.399,232.677 259.2,232.375 260.036,232.221C260.626,232.135 261.196,231.945 261.72,231.661C263.773,230.653 265.785,229.567 267.858,228.601C268.707,228.214 269.606,227.948 270.529,227.812C272.128,227.609 273.699,227.226 275.212,226.668C275.695,226.507 276.203,226.435 276.712,226.456C276.72,226.456 276.729,226.456 276.737,226.456C277.505,226.456 278.137,227.088 278.137,227.856C278.137,228.475 277.726,229.024 277.132,229.199C276.431,229.44 275.7,229.58 274.96,229.616C273.665,229.605 272.414,230.086 271.46,230.962C270.189,231.963 268.68,232.618 267.081,232.862C265.745,233.152 264.424,233.484 263.317,233.743C261.978,234.99 260.837,236.131 259.601,237.162C259.01,237.64 258.333,238.001 257.606,238.224C256.127,238.68 254.876,239.682 254.106,241.024C253.795,241.533 253.399,241.994 253.129,242.524C252.579,243.495 251.746,244.275 250.741,244.761C250.188,244.984 249.662,245.269 249.173,245.611C247.995,246.68 246.873,247.698 246.884,249.604C246.845,252.416 246.156,255.18 244.872,257.682C243.844,259.817 242.952,262.013 241.772,264.082C241.014,265.404 240.508,266.862 239.863,268.249C239.023,270.07 240.085,271.555 240.778,273.065C241.095,273.46 241.567,273.701 242.073,273.728C242.813,273.849 243.515,274.141 244.122,274.582C245.984,275.736 247.756,277.11 249.994,277.666C250.31,277.551 250.604,277.385 250.865,277.174C251.478,276.429 252.514,276.173 253.403,276.546C254.124,276.761 254.913,276.73 255.657,276.884C256.328,276.917 256.98,277.121 257.549,277.478C259.455,279.408 261.566,281.178 262.642,283.797C262.978,284.667 263.136,285.596 263.107,286.529C263.116,287.31 262.708,288.04 262.038,288.442C260.256,289.602 257.88,289.336 256.399,287.81C255.844,287.279 255.36,286.678 254.958,286.024C254.202,284.784 253.005,283.874 251.607,283.479C250.237,283.01 248.932,282.366 247.727,281.563C245.804,280.287 243.534,279.637 241.227,279.701C240.121,279.724 239.048,280.079 238.146,280.719C237.719,281.119 237.214,281.428 236.664,281.628C234.782,281.908 233.699,283.151 232.613,284.682C231.421,285.23 230.125,285.514 228.813,285.515C228.478,285.481 228.058,285.635 227.813,285.484C226.157,284.464 224.899,285.643 223.546,286.193C223.336,286.819 223.116,287.44 222.886,288.056C223.149,288.754 223.448,289.439 223.782,290.106C224.673,291.834 224.691,291.824 223.861,293.59C224.387,294.384 225.438,294.66 226.286,294.225C226.757,294.06 227.266,294.04 227.748,294.167C228.984,294.481 230.164,294.982 231.248,295.653C232,295.935 232.456,296.71 232.338,297.504C232.311,298.381 231.673,299.127 230.811,299.29C229.411,299.631 228.027,300.035 226.64,300.407C226.316,300.242 226.013,300.037 225.74,299.796C224.742,298.591 223.181,297.997 221.634,298.232C221.06,298.355 220.463,298.187 220.038,297.786L218.655,298.113C218.317,298.632 218.573,298.967 218.894,299.261C219.3,299.695 219.759,300.076 220.26,300.395C221.531,301.061 221.596,302.465 222.289,303.483C222.389,303.623 222.425,303.8 222.389,303.968C221.743,305.553 222.406,307.114 222.457,308.685C222.484,309.454 222.949,310.328 221.931,310.837C222.095,311.018 222.262,311.199 222.431,311.377C222.27,312.377 221.246,312.487 220.692,313.077L220.364,312.923L220.538,313.23C220.15,313.368 219.754,313.483 219.353,313.575C218.607,313.714 217.853,313.808 217.095,313.855C214.745,313.961 214.082,315.788 213.358,317.517C213.225,317.922 213.275,318.365 213.495,318.73C214.943,320.622 214.219,322.2 213.013,323.638C212.242,323.597 211.468,323.62 210.701,323.706C210.193,323.822 209.666,323.582 209.42,323.122C209.22,322.258 208.392,322.152 207.965,321.599C207.658,321.199 207.091,320.882 207.015,320.458C206.827,319.553 206.287,318.759 205.515,318.251C205.305,318.09 205.323,317.643 205.243,317.316ZM115.492,263.869L115.491,263.869L115.492,263.865L115.492,263.869ZM115.492,263.869C117.17,263.27 118.973,263.109 120.729,263.403C121.824,263.647 122.962,263.611 124.039,263.299C124.301,263.218 124.57,263.163 124.843,263.12C124.864,263.055 124.885,262.99 124.907,262.926C125.356,261.875 125.461,260.678 125.206,259.547C124.982,258.299 125.137,257.001 125.644,255.864C125.937,254.563 126.981,253.645 128.168,253.645C128.517,253.645 128.862,253.724 129.183,253.878C129.494,254.007 129.791,254.176 130.069,254.38C130.775,255.809 130.92,257.51 130.468,259.066C130.202,260.394 130.292,261.783 130.726,263.053C130.78,263.223 130.831,263.395 130.88,263.567C132.293,264.157 133.85,264.331 135.366,264.06C136.193,264 137.024,264.061 137.833,264.242C139.008,264.312 139.994,265.178 140.216,266.334C140.283,266.685 140.277,267.045 140.197,267.393C139.955,269.313 138.827,270.354 137.328,270.195C135.435,270.017 133.533,269.956 131.633,270.013C131.59,271.006 131.475,271.998 131.286,272.977C130.976,274.863 129.868,276.245 129.159,277.878L129.157,277.877C127.894,278.783 126.698,278.149 125.887,277.412C125.075,276.674 124.402,274.939 124.287,273.45C124.049,272.068 123.936,270.665 123.949,269.263C122.002,268.795 120.072,268.239 118.099,267.925C117.645,267.81 117.21,267.63 116.806,267.393C115.701,266.859 115.033,266.103 115.478,264.766C115.525,264.469 115.53,264.167 115.492,263.869ZM200.405,314.635C200.405,314.635 199.665,317.056 197.848,318.179C197.861,318.188 197.874,318.196 197.887,318.205C197.624,318.588 197.405,318.905 197.129,319.305L198.355,320.125C198.418,320.28 198.456,320.443 198.468,320.61C198.368,322.482 198.103,324.285 196.596,325.645C196.457,325.85 196.395,326.098 196.422,326.345C196.448,326.87 196.098,327.345 195.589,327.476C194.189,327.961 193.789,329.136 193.55,330.424C193.331,331.585 193.092,332.747 192.915,333.918C192.798,334.933 192.314,335.871 191.556,336.555C191.382,336.716 191.047,336.914 191.068,337.043C191.375,338.734 190.023,338.949 188.981,339.39C188.599,339.55 188.448,339.155 188.31,338.854C187.579,338.823 187.702,338.224 187.617,337.741C186.848,337.635 186.78,338.455 186.302,338.741C186.158,338.856 185.979,338.918 185.794,338.918C185.475,338.918 185.184,338.731 185.052,338.441C184.939,338.219 184.871,337.977 184.758,337.755C184.427,337.068 185.137,336.112 184.379,335.624C183.593,335.115 184.208,334.124 183.498,333.629C183.368,333.54 183.474,333.029 183.56,332.734C183.782,332.006 184.045,331.293 184.329,330.456C183.984,330.032 183.622,329.592 183.188,329.056C183.133,327.509 184.175,326.395 185.159,325.271C185.133,324.932 185.089,324.594 185.027,324.259C183.844,324.668 182.644,325.043 181.43,325.385C181.125,325.669 180.852,325.998 180.643,326.412C180.086,327.512 176.807,329.841 175.803,329.763C174.761,329.678 173.778,330.316 172.603,329.784C172.367,329.316 172.077,328.722 171.739,328.049C171.636,327.985 171.525,327.936 171.408,327.905C170.988,327.84 170.564,327.799 170.144,327.758C169.911,327.735 169.776,327.661 169.698,327.556C169.041,327.617 168.38,327.669 167.716,327.71C167.436,327.871 167.196,327.877 167.005,327.751C166.701,327.767 166.396,327.78 166.092,327.792C165.573,328.356 165.086,328.885 164.621,329.388L162.356,329.743C162.643,330.276 162.824,330.611 163.056,331.038C162.54,331.83 161.99,332.667 161.403,333.576C160.46,333.108 161.348,332.299 160.935,331.759C160.443,331.11 161.099,330.505 161.311,329.867C159.805,329.99 159.572,328.104 158.121,328.132C158.042,328.385 158.039,328.784 157.838,329C156.338,330.6 156.919,332.242 157.657,333.9C157.93,334.515 158.241,335.113 158.542,335.721L158.474,335.871L158.628,335.81C159.475,336.145 160.322,336.476 161.313,336.865C163.099,338.744 162.546,341.073 162.064,343.372C161.797,344.2 161.041,344.78 160.172,344.824C159.393,344.855 158.689,344.346 158.472,343.598C158.308,343.147 157.847,342.812 157.635,342.372C157.514,341.991 157.447,341.596 157.435,341.197L155.601,340.445C155.603,340.455 155.605,340.466 155.607,340.477C155.597,340.463 155.587,340.449 155.577,340.435L155.546,340.422C155.549,340.417 155.553,340.411 155.556,340.406C155.173,339.899 154.551,339.59 154.407,338.861C154.307,338.356 154.052,337.911 154.567,337.467C154.714,337.341 154.844,336.924 154.767,336.835C154.58,336.655 154.475,336.406 154.475,336.147C154.475,335.88 154.586,335.626 154.781,335.445C154.846,335.382 154.905,335.317 154.959,335.251C154.503,335.368 154.055,335.517 153.62,335.696C152.989,335.981 152.251,335.9 151.697,335.484C151.225,335.18 150.875,334.72 150.706,334.184C150.205,333.114 150.171,331.881 150.614,330.784C151.061,329.48 151.305,328.115 151.787,326.807C145.144,325.619 138.868,323.44 133.137,320.439C132.534,320.559 132.021,321.058 131.479,321.428C130.885,322.081 130.233,322.524 129.322,321.995C128.628,322.432 127.798,322.6 126.989,322.466C126.747,322.445 126.378,322.794 126.231,323.066C125.69,324.03 125.222,325.032 124.831,326.066C124.594,327.074 123.799,327.861 122.788,328.088C121.852,328.374 120.936,328.72 120.045,329.126C119.457,328.875 118.904,328.548 118.402,328.152C117.368,327.279 116.26,326.498 115.089,325.819C114.617,325.49 114.217,325.069 113.911,324.582C113.064,323.168 113.218,323.168 113.46,321.645C113.704,320.663 114.149,319.741 114.768,318.94C115.504,317.55 116.943,316.667 118.515,316.64C119.524,316.583 120.523,316.412 121.494,316.131C121.837,316.034 126.227,314.118 126.307,313.967C126.308,313.965 126.309,313.964 126.31,313.962C128.156,313.134 129.646,311.591 130.38,309.613L134.263,299.144C135.607,295.521 139.468,293.495 143.213,294.447C155.481,297.545 167.87,297.442 180.371,294.363C184.104,293.437 187.938,295.464 189.275,299.07C191.065,303.894 193.186,309.613 193.186,309.613C194.306,312.631 197.186,314.635 200.405,314.635ZM188.339,338.773C188.439,338.692 188.556,338.625 188.612,338.523C188.636,338.461 188.506,338.323 188.448,338.223C188.414,338.288 188.348,338.349 188.348,338.414C188.334,338.534 188.338,338.653 188.339,338.773ZM110.847,327.535C113.364,327.493 115.484,329.497 115.585,332.013C115.626,333.284 113.985,335.524 112.535,336.102C111.931,336.394 111.275,336.564 110.605,336.602C109.858,336.54 109.129,336.342 108.453,336.018C106.383,335.118 105.519,333.801 105.761,331.974C105.948,329.694 107.735,327.846 110.007,327.584C110.285,327.543 110.566,327.527 110.847,327.536L110.847,327.535ZM116.039,222.819C115.569,222.659 115.117,222.451 114.69,222.197C113.016,221.049 111.23,220.031 110.031,218.303C109.806,217.979 109.368,217.803 109.081,217.517C108.581,217.066 108.132,216.563 107.739,216.017C107.549,215.709 107.448,215.355 107.448,214.993C107.448,214.231 107.896,213.537 108.59,213.223C109.525,212.774 110.646,212.947 111.401,213.657C112.593,214.857 113.83,216.017 114.95,217.281C115.95,218.418 116.835,219.665 117.75,220.881C118.071,221.304 118.303,221.881 117.928,222.281C117.521,222.562 117.061,222.758 116.575,222.855C116.395,222.865 116.213,222.854 116.035,222.821L116.039,222.819ZM102.168,320.098C101.64,319.966 101.126,319.786 100.631,319.562C99.808,319.073 99.5,318.016 99.931,317.162C100.837,315.421 102.358,314.077 104.197,313.391C104.434,313.302 104.682,313.247 104.935,313.227C106.935,313.073 107.753,314.127 107.114,316.018C106.503,317.825 105.048,318.846 103.545,319.799C103.105,319.969 102.642,320.07 102.172,320.099L102.168,320.098ZM241.255,289.593C242.287,289.829 243.185,290.064 244.097,290.228C244.945,290.381 245.686,290.897 246.126,291.639C246.611,292.127 246.782,292.849 246.57,293.504C246.271,294.327 245.479,294.874 244.603,294.863C243.84,294.913 243.075,294.847 242.332,294.668C240.764,294.244 239.353,293.371 238.274,292.157C238.016,291.956 237.865,291.647 237.865,291.32C237.865,290.845 238.185,290.425 238.643,290.299C239.5,290.015 240.373,289.779 241.256,289.592L241.255,289.593ZM169.235,332.227C169.863,332.664 170.154,333.453 169.957,334.196C169.875,334.996 169.902,335.849 169.124,336.42C168.799,336.731 168.506,337.075 168.25,337.445C167.628,337.377 166.887,337.298 166.088,337.209C165.996,336.99 165.962,336.683 165.798,336.577C165.204,336.191 165.733,335.665 165.583,335.296C165.412,334.876 164.852,334.616 164.674,334.196C164.548,333.896 164.701,333.147 164.852,333.113C165.89,332.864 165.965,331.913 166.314,331.213C166.502,330.639 167.036,330.246 167.639,330.236C168.247,330.277 168.776,330.676 168.981,331.251C169.097,331.566 169.185,331.892 169.244,332.224L169.235,332.227ZM74.893,295.3C75.216,296.018 75.071,296.865 74.528,297.435C73.257,298.681 71.722,299.625 70.036,300.195C69.465,300.337 68.862,300.28 68.328,300.034C67.819,299.804 67.491,299.295 67.491,298.737C67.491,298.432 67.589,298.134 67.771,297.889C67.82,297.821 67.877,297.759 67.942,297.705C69.942,296.086 72.042,294.754 74.893,295.305L74.893,295.3ZM134.595,325.34C134.384,326.313 134.116,327.273 133.795,328.216C133.506,328.987 132.764,329.5 131.941,329.5C131.636,329.5 131.335,329.43 131.062,329.295C130.638,329.038 130.333,328.622 130.218,328.141C129.849,326.089 130.919,324.031 132.81,323.154C132.984,323.047 133.183,322.991 133.387,322.991C133.968,322.991 134.454,323.448 134.491,324.028C134.546,324.359 134.546,324.701 134.591,325.34L134.595,325.34ZM129.517,212.805C128.444,212.901 127.471,212.127 127.324,211.06C127.259,210.376 127.638,209.723 128.263,209.441C128.61,209.224 129.01,209.109 129.419,209.109C130.384,209.109 131.239,209.748 131.511,210.674C131.777,211.228 131.562,211.903 131.023,212.201C130.537,212.439 130.033,212.639 129.517,212.801L129.517,212.805ZM84.304,290.051C84.154,291.759 82.982,292.551 81.647,293.135C81.353,293.261 80.847,293.002 80.479,292.835C80.208,292.731 80.029,292.47 80.029,292.181C80.029,292.037 80.073,291.897 80.155,291.78C80.24,291.537 80.384,291.32 80.575,291.148C81.42,290.445 82.435,289.977 83.518,289.79C83.792,289.836 84.058,289.924 84.307,290.05L84.304,290.051ZM154.705,286.914C155.626,285.904 156.959,285.366 158.324,285.455C159.702,285.576 161.097,285.546 162.483,285.53C163.588,285.521 164.693,285.454 165.796,285.385C166.447,285.344 167.111,285.224 167.669,285.661C168.832,286.578 169.61,287.477 167.742,288.607C167.299,288.946 166.784,289.181 166.237,289.293C162.918,289.508 159.585,289.805 156.332,288.737C155.433,288.585 154.753,287.824 154.703,286.913L154.705,286.914ZM196.417,253.966C198.079,254.168 199.624,254.709 200.719,256.51C201.389,257.512 201.49,258.957 200.97,260.096C200.56,261.117 199.831,261.87 198.966,262.167C198.348,262.33 197.749,262.6 197.128,262.734C195.62,262.957 194.096,262.528 192.8,261.515C191.799,260.904 191.205,259.541 191.323,258.128C191.39,256.718 192.094,255.481 193.122,254.969C194.144,254.309 195.272,253.966 196.417,253.966L196.417,253.966ZM186.98,262.24C189.735,262.195 192.055,264.387 192.165,267.14C192.21,268.53 190.414,270.981 188.827,271.614C188.167,271.934 187.449,272.12 186.716,272.161C185.898,272.093 185.1,271.877 184.361,271.522C182.096,270.537 181.151,269.096 181.415,267.097C181.62,264.602 183.575,262.581 186.061,262.293C186.366,262.249 186.673,262.231 186.98,262.241L186.98,262.24ZM203.971,271.562C203.17,271.853 202.27,271.685 201.627,271.125C200.749,270.614 199.919,270.023 199.149,269.361C198.352,268.707 197.889,267.729 197.889,266.699C197.889,265.739 198.291,264.821 198.996,264.17C200.155,262.938 201.774,262.238 203.465,262.238C205.943,262.238 208.189,263.74 209.136,266.03C209.671,267.153 209.433,268.5 208.545,269.372C207.281,270.612 205.963,271.797 203.97,271.56L203.971,271.562ZM197.127,277.526C196.08,277.699 195.324,277.412 194.447,277.198C193.616,276.788 192.834,276.285 192.116,275.699C192.045,274.888 191.974,274.077 191.897,273.236C192.047,273.004 192.193,272.776 192.342,272.555C193.153,271.622 194.192,270.913 195.357,270.499C196.598,269.974 198.05,270.421 198.781,271.553C199.728,272.756 199.772,274.45 198.89,275.701C198.353,276.355 197.765,276.965 197.13,277.525L197.127,277.526Z" style="fill:url(#_Radial1);"/>
                </g>
                <g transform="matrix(5.69764,0,0,8.33333,6007.54,1467.18)">
                    <path d="M233.279,273.53C233.864,274.47 234.157,275.51 234.157,276.65C234.157,278.11 233.652,279.54 232.643,280.94C231.634,282.34 230.237,283.535 228.453,284.525C226.668,285.515 224.665,286.17 222.442,286.49C221.33,286.65 220.262,286.73 219.238,286.73C216.694,286.73 214.251,286.34 211.911,285.56C209.571,284.78 207.574,283.69 205.922,282.29C204.269,280.89 203.165,279.31 202.609,277.55C202.404,276.87 202.302,276.14 202.302,275.36C202.302,273.64 202.85,271.98 203.947,270.38C205.044,268.78 206.587,267.42 208.576,266.3C210.565,265.18 212.832,264.43 215.377,264.05C216.606,263.89 217.82,263.81 219.019,263.81C221.037,263.81 222.99,264.005 224.877,264.395C226.763,264.785 228.307,265.35 229.506,266.09L224.855,271.01C224.211,270.59 223.37,270.265 222.332,270.035C221.293,269.805 220.233,269.69 219.151,269.69C218.507,269.69 217.849,269.74 217.176,269.84C215.567,270.1 214.244,270.715 213.205,271.685C212.167,272.655 211.648,273.73 211.648,274.91C211.648,275.23 211.691,275.56 211.779,275.9C212.189,277.14 213.066,278.165 214.412,278.975C215.757,279.785 217.279,280.19 218.975,280.19C219.385,280.19 219.809,280.16 220.248,280.1C221.213,279.96 222.156,279.69 223.078,279.29C223.999,278.89 224.562,278.44 224.767,277.94L216.957,276.92L218.756,271.55L233.279,273.53Z" style="fill:rgb(249,214,21);fill-rule:nonzero;"/>
                    <path d="M251.751,286.67L251.708,285.26C250.918,285.72 249.938,286.09 248.768,286.37C247.598,286.65 246.398,286.79 245.17,286.79C243.239,286.79 241.455,286.425 239.817,285.695C238.179,284.965 236.877,283.98 235.912,282.74C234.946,281.5 234.464,280.14 234.464,278.66C234.464,277.16 234.961,275.79 235.955,274.55C236.95,273.31 238.318,272.335 240.058,271.625C241.799,270.915 243.722,270.56 245.828,270.56C246.969,270.56 248.044,270.69 249.053,270.95C250.062,271.21 250.874,271.57 251.488,272.03L251.488,270.74L258.772,270.74L259.781,286.67L251.751,286.67ZM246.662,281.84C247.422,281.84 248.153,281.68 248.856,281.36C249.558,281.04 250.113,280.615 250.523,280.085C250.932,279.555 251.137,278.99 251.137,278.39C251.137,277.57 250.75,276.885 249.974,276.335C249.199,275.785 248.227,275.51 247.057,275.51C245.769,275.51 244.643,275.82 243.678,276.44C242.713,277.06 242.23,277.8 242.23,278.66C242.23,279.18 242.442,279.69 242.866,280.19C243.29,280.69 243.846,281.09 244.534,281.39C245.221,281.69 245.93,281.84 246.662,281.84Z" style="fill:rgb(249,214,21);fill-rule:nonzero;"/>
                    <path d="M296.55,286.67L288.038,286.67L287.994,278.33C287.994,277.23 287.811,276.47 287.446,276.05C287.08,275.63 286.415,275.42 285.449,275.42C284.718,275.42 284.126,275.725 283.672,276.335C283.219,276.945 282.992,277.72 282.992,278.66L283.036,279.23L282.992,279.14L282.992,286.58L274.743,286.64L274.655,278.33C274.655,277.41 274.407,276.695 273.909,276.185C273.412,275.675 272.71,275.42 271.803,275.42C270.867,275.42 270.15,275.69 269.653,276.23C269.156,276.77 268.907,277.54 268.907,278.54L268.951,279.17L268.907,279.11L269.258,286.7L261.009,286.7L261.009,270.89L268.556,270.71L268.6,271.91C269.361,271.51 270.289,271.2 271.386,270.98C272.483,270.76 273.675,270.65 274.962,270.65C277.654,270.65 279.687,271.12 281.061,272.06C281.793,271.5 282.758,271.1 283.957,270.86C285.157,270.62 286.722,270.5 288.652,270.5C291.373,270.5 293.355,271.235 294.598,272.705C295.841,274.175 296.477,276.55 296.506,279.83L296.55,286.67Z" style="fill:rgb(249,214,21);fill-rule:nonzero;"/>
                    <path d="M308.836,270.56C312.492,270.56 315.33,271.29 317.348,272.75C319.366,274.21 320.376,276.2 320.376,278.72C320.376,279.14 320.361,279.46 320.332,279.68L304.799,279.8C305.15,280.46 305.64,281.005 306.269,281.435C306.898,281.865 307.636,282.1 308.485,282.14C310.825,282.26 312.521,281.79 313.574,280.73L319.849,281.96C319.469,282.9 318.737,283.745 317.655,284.495C316.573,285.245 315.278,285.83 313.772,286.25C312.265,286.67 310.708,286.88 309.099,286.88C308.719,286.88 308.426,286.87 308.221,286.85C306.203,286.75 304.338,286.3 302.627,285.5C300.916,284.7 299.556,283.65 298.546,282.35C297.537,281.05 297.033,279.63 297.033,278.09C297.033,277.79 297.047,277.56 297.076,277.4C297.193,276.08 297.786,274.9 298.853,273.86C299.921,272.82 301.325,272.01 303.066,271.43C304.806,270.85 306.73,270.56 308.836,270.56ZM309.274,274.28C307.11,274.16 305.633,274.78 304.843,276.14L312.258,276.17C312.141,275.59 311.797,275.14 311.227,274.82C310.657,274.5 310.006,274.32 309.274,274.28Z" style="fill:rgb(249,214,21);fill-rule:nonzero;"/>
                </g>
                <g transform="matrix(5.69764,0,0,8.33333,5996.54,1497.18)">
                    <path d="M233.279,273.53C233.864,274.47 234.157,275.51 234.157,276.65C234.157,278.11 233.652,279.54 232.643,280.94C231.634,282.34 230.237,283.535 228.453,284.525C226.668,285.515 224.665,286.17 222.442,286.49C221.33,286.65 220.262,286.73 219.238,286.73C216.694,286.73 214.251,286.34 211.911,285.56C209.571,284.78 207.574,283.69 205.922,282.29C204.269,280.89 203.165,279.31 202.609,277.55C202.404,276.87 202.302,276.14 202.302,275.36C202.302,273.64 202.85,271.98 203.947,270.38C205.044,268.78 206.587,267.42 208.576,266.3C210.565,265.18 212.832,264.43 215.377,264.05C216.606,263.89 217.82,263.81 219.019,263.81C221.037,263.81 222.99,264.005 224.877,264.395C226.763,264.785 228.307,265.35 229.506,266.09L224.855,271.01C224.211,270.59 223.37,270.265 222.332,270.035C221.293,269.805 220.233,269.69 219.151,269.69C218.507,269.69 217.849,269.74 217.176,269.84C215.567,270.1 214.244,270.715 213.205,271.685C212.167,272.655 211.648,273.73 211.648,274.91C211.648,275.23 211.691,275.56 211.779,275.9C212.189,277.14 213.066,278.165 214.412,278.975C215.757,279.785 217.279,280.19 218.975,280.19C219.385,280.19 219.809,280.16 220.248,280.1C221.213,279.96 222.156,279.69 223.078,279.29C223.999,278.89 224.562,278.44 224.767,277.94L216.957,276.92L218.756,271.55L233.279,273.53Z" style="fill:rgb(232,58,77);fill-rule:nonzero;"/>
                    <path d="M251.751,286.67L251.708,285.26C250.918,285.72 249.938,286.09 248.768,286.37C247.598,286.65 246.398,286.79 245.17,286.79C243.239,286.79 241.455,286.425 239.817,285.695C238.179,284.965 236.877,283.98 235.912,282.74C234.946,281.5 234.464,280.14 234.464,278.66C234.464,277.16 234.961,275.79 235.955,274.55C236.95,273.31 238.318,272.335 240.058,271.625C241.799,270.915 243.722,270.56 245.828,270.56C246.969,270.56 248.044,270.69 249.053,270.95C250.062,271.21 250.874,271.57 251.488,272.03L251.488,270.74L258.772,270.74L259.781,286.67L251.751,286.67ZM246.662,281.84C247.422,281.84 248.153,281.68 248.856,281.36C249.558,281.04 250.113,280.615 250.523,280.085C250.932,279.555 251.137,278.99 251.137,278.39C251.137,277.57 250.75,276.885 249.974,276.335C249.199,275.785 248.227,275.51 247.057,275.51C245.769,275.51 244.643,275.82 243.678,276.44C242.713,277.06 242.23,277.8 242.23,278.66C242.23,279.18 242.442,279.69 242.866,280.19C243.29,280.69 243.846,281.09 244.534,281.39C245.221,281.69 245.93,281.84 246.662,281.84Z" style="fill:rgb(232,58,77);fill-rule:nonzero;"/>
                    <path d="M296.55,286.67L288.038,286.67L287.994,278.33C287.994,277.23 287.811,276.47 287.446,276.05C287.08,275.63 286.415,275.42 285.449,275.42C284.718,275.42 284.126,275.725 283.672,276.335C283.219,276.945 282.992,277.72 282.992,278.66L283.036,279.23L282.992,279.14L282.992,286.58L274.743,286.64L274.655,278.33C274.655,277.41 274.407,276.695 273.909,276.185C273.412,275.675 272.71,275.42 271.803,275.42C270.867,275.42 270.15,275.69 269.653,276.23C269.156,276.77 268.907,277.54 268.907,278.54L268.951,279.17L268.907,279.11L269.258,286.7L261.009,286.7L261.009,270.89L268.556,270.71L268.6,271.91C269.361,271.51 270.289,271.2 271.386,270.98C272.483,270.76 273.675,270.65 274.962,270.65C277.654,270.65 279.687,271.12 281.061,272.06C281.793,271.5 282.758,271.1 283.957,270.86C285.157,270.62 286.722,270.5 288.652,270.5C291.373,270.5 293.355,271.235 294.598,272.705C295.841,274.175 296.477,276.55 296.506,279.83L296.55,286.67Z" style="fill:rgb(232,58,77);fill-rule:nonzero;"/>
                    <path d="M308.836,270.56C312.492,270.56 315.33,271.29 317.348,272.75C319.366,274.21 320.376,276.2 320.376,278.72C320.376,279.14 320.361,279.46 320.332,279.68L304.799,279.8C305.15,280.46 305.64,281.005 306.269,281.435C306.898,281.865 307.636,282.1 308.485,282.14C310.825,282.26 312.521,281.79 313.574,280.73L319.849,281.96C319.469,282.9 318.737,283.745 317.655,284.495C316.573,285.245 315.278,285.83 313.772,286.25C312.265,286.67 310.708,286.88 309.099,286.88C308.719,286.88 308.426,286.87 308.221,286.85C306.203,286.75 304.338,286.3 302.627,285.5C300.916,284.7 299.556,283.65 298.546,282.35C297.537,281.05 297.033,279.63 297.033,278.09C297.033,277.79 297.047,277.56 297.076,277.4C297.193,276.08 297.786,274.9 298.853,273.86C299.921,272.82 301.325,272.01 303.066,271.43C304.806,270.85 306.73,270.56 308.836,270.56ZM309.274,274.28C307.11,274.16 305.633,274.78 304.843,276.14L312.258,276.17C312.141,275.59 311.797,275.14 311.227,274.82C310.657,274.5 310.006,274.32 309.274,274.28Z" style="fill:rgb(232,58,77);fill-rule:nonzero;"/>
                </g>
                <g transform="matrix(5.69764,0,0,8.33333,5996.54,1483.18)">
                    <path d="M233.279,273.53C233.864,274.47 234.157,275.51 234.157,276.65C234.157,278.11 233.652,279.54 232.643,280.94C231.634,282.34 230.237,283.535 228.453,284.525C226.668,285.515 224.665,286.17 222.442,286.49C221.33,286.65 220.262,286.73 219.238,286.73C216.694,286.73 214.251,286.34 211.911,285.56C209.571,284.78 207.574,283.69 205.922,282.29C204.269,280.89 203.165,279.31 202.609,277.55C202.404,276.87 202.302,276.14 202.302,275.36C202.302,273.64 202.85,271.98 203.947,270.38C205.044,268.78 206.587,267.42 208.576,266.3C210.565,265.18 212.832,264.43 215.377,264.05C216.606,263.89 217.82,263.81 219.019,263.81C221.037,263.81 222.99,264.005 224.877,264.395C226.763,264.785 228.307,265.35 229.506,266.09L224.855,271.01C224.211,270.59 223.37,270.265 222.332,270.035C221.293,269.805 220.233,269.69 219.151,269.69C218.507,269.69 217.849,269.74 217.176,269.84C215.567,270.1 214.244,270.715 213.205,271.685C212.167,272.655 211.648,273.73 211.648,274.91C211.648,275.23 211.691,275.56 211.779,275.9C212.189,277.14 213.066,278.165 214.412,278.975C215.757,279.785 217.279,280.19 218.975,280.19C219.385,280.19 219.809,280.16 220.248,280.1C221.213,279.96 222.156,279.69 223.078,279.29C223.999,278.89 224.562,278.44 224.767,277.94L216.957,276.92L218.756,271.55L233.279,273.53Z" style="fill:rgb(64,34,84);fill-rule:nonzero;"/>
                    <path d="M251.751,286.67L251.708,285.26C250.918,285.72 249.938,286.09 248.768,286.37C247.598,286.65 246.398,286.79 245.17,286.79C243.239,286.79 241.455,286.425 239.817,285.695C238.179,284.965 236.877,283.98 235.912,282.74C234.946,281.5 234.464,280.14 234.464,278.66C234.464,277.16 234.961,275.79 235.955,274.55C236.95,273.31 238.318,272.335 240.058,271.625C241.799,270.915 243.722,270.56 245.828,270.56C246.969,270.56 248.044,270.69 249.053,270.95C250.062,271.21 250.874,271.57 251.488,272.03L251.488,270.74L258.772,270.74L259.781,286.67L251.751,286.67ZM246.662,281.84C247.422,281.84 248.153,281.68 248.856,281.36C249.558,281.04 250.113,280.615 250.523,280.085C250.932,279.555 251.137,278.99 251.137,278.39C251.137,277.57 250.75,276.885 249.974,276.335C249.199,275.785 248.227,275.51 247.057,275.51C245.769,275.51 244.643,275.82 243.678,276.44C242.713,277.06 242.23,277.8 242.23,278.66C242.23,279.18 242.442,279.69 242.866,280.19C243.29,280.69 243.846,281.09 244.534,281.39C245.221,281.69 245.93,281.84 246.662,281.84Z" style="fill:rgb(64,34,84);fill-rule:nonzero;"/>
                    <path d="M296.55,286.67L288.038,286.67L287.994,278.33C287.994,277.23 287.811,276.47 287.446,276.05C287.08,275.63 286.415,275.42 285.449,275.42C284.718,275.42 284.126,275.725 283.672,276.335C283.219,276.945 282.992,277.72 282.992,278.66L283.036,279.23L282.992,279.14L282.992,286.58L274.743,286.64L274.655,278.33C274.655,277.41 274.407,276.695 273.909,276.185C273.412,275.675 272.71,275.42 271.803,275.42C270.867,275.42 270.15,275.69 269.653,276.23C269.156,276.77 268.907,277.54 268.907,278.54L268.951,279.17L268.907,279.11L269.258,286.7L261.009,286.7L261.009,270.89L268.556,270.71L268.6,271.91C269.361,271.51 270.289,271.2 271.386,270.98C272.483,270.76 273.675,270.65 274.962,270.65C277.654,270.65 279.687,271.12 281.061,272.06C281.793,271.5 282.758,271.1 283.957,270.86C285.157,270.62 286.722,270.5 288.652,270.5C291.373,270.5 293.355,271.235 294.598,272.705C295.841,274.175 296.477,276.55 296.506,279.83L296.55,286.67Z" style="fill:rgb(64,34,84);fill-rule:nonzero;"/>
                    <path d="M308.836,270.56C312.492,270.56 315.33,271.29 317.348,272.75C319.366,274.21 320.376,276.2 320.376,278.72C320.376,279.14 320.361,279.46 320.332,279.68L304.799,279.8C305.15,280.46 305.64,281.005 306.269,281.435C306.898,281.865 307.636,282.1 308.485,282.14C310.825,282.26 312.521,281.79 313.574,280.73L319.849,281.96C319.469,282.9 318.737,283.745 317.655,284.495C316.573,285.245 315.278,285.83 313.772,286.25C312.265,286.67 310.708,286.88 309.099,286.88C308.719,286.88 308.426,286.87 308.221,286.85C306.203,286.75 304.338,286.3 302.627,285.5C300.916,284.7 299.556,283.65 298.546,282.35C297.537,281.05 297.033,279.63 297.033,278.09C297.033,277.79 297.047,277.56 297.076,277.4C297.193,276.08 297.786,274.9 298.853,273.86C299.921,272.82 301.325,272.01 303.066,271.43C304.806,270.85 306.73,270.56 308.836,270.56ZM309.274,274.28C307.11,274.16 305.633,274.78 304.843,276.14L312.258,276.17C312.141,275.59 311.797,275.14 311.227,274.82C310.657,274.5 310.006,274.32 309.274,274.28Z" style="fill:rgb(64,34,84);fill-rule:nonzero;"/>
                </g>
                <g transform="matrix(8.98754,0,0,12.141,5237.32,744.27)">
                    <path d="M226.825,285.962C224.255,285.962 221.873,285.447 219.679,284.419C217.485,283.391 215.746,282.017 214.461,280.297C213.176,278.577 212.533,276.727 212.533,274.747C212.533,272.729 213.195,270.88 214.519,269.198C215.843,267.516 217.641,266.181 219.913,265.191C222.184,264.201 224.657,263.706 227.331,263.706C229.279,263.706 231.154,263.98 232.959,264.528C234.763,265.076 236.327,265.907 237.651,267.022C238.975,268.136 239.91,269.491 240.455,271.086L233.679,272.614C233.29,271.788 232.511,271.057 231.342,270.423C230.174,269.789 228.798,269.472 227.215,269.472C225.241,269.472 223.599,269.919 222.288,270.812C220.977,271.706 220.322,272.999 220.322,274.69C220.322,275.824 220.633,276.809 221.256,277.645C221.879,278.481 222.71,279.115 223.749,279.547C224.787,279.98 225.916,280.196 227.137,280.196C228.227,280.196 229.24,280.023 230.174,279.677C231.109,279.331 231.881,278.903 232.491,278.394C233.101,277.885 233.497,277.4 233.679,276.938L240.027,278.553C239.715,279.898 238.91,281.138 237.612,282.272C236.314,283.405 234.705,284.304 232.783,284.967C230.862,285.63 228.876,285.962 226.825,285.962Z" style="fill:rgb(249,214,21);fill-rule:nonzero;"/>
                    <path d="M253.189,270.25C254.098,270.25 254.993,270.418 255.876,270.755C256.759,271.091 257.538,271.567 258.213,272.182L255.526,276.65C254.773,275.881 253.747,275.497 252.449,275.497C251.047,275.497 250.002,275.867 249.314,276.607C248.626,277.347 248.23,278.553 248.126,280.225L248.126,285.76L240.883,285.76L240.883,270.394L248.126,270.394L248.126,271.72C248.827,271.259 249.626,270.899 250.521,270.639C251.417,270.38 252.306,270.25 253.189,270.25Z" style="fill:rgb(249,214,21);fill-rule:nonzero;"/>
                    <path d="M269.116,269.587L263.664,269.184L267.169,265.494L273.244,266.82L269.116,269.587ZM267.831,270.279C271.076,270.279 273.595,270.981 275.386,272.384C277.177,273.786 278.073,275.699 278.073,278.12C278.073,278.524 278.06,278.831 278.034,279.043L264.248,279.158C264.56,279.792 264.995,280.316 265.553,280.729C266.111,281.142 266.767,281.368 267.52,281.407C269.597,281.522 271.102,281.07 272.037,280.052L277.606,281.234C277.268,282.137 276.619,282.949 275.659,283.67C274.698,284.39 273.549,284.953 272.212,285.356C270.875,285.76 269.493,285.962 268.065,285.962C267.727,285.962 267.468,285.952 267.286,285.933C265.495,285.837 263.839,285.404 262.321,284.635C260.802,283.867 259.595,282.858 258.699,281.608C257.803,280.359 257.356,278.995 257.356,277.515C257.356,277.227 257.368,277.006 257.394,276.852C257.498,275.583 258.024,274.45 258.972,273.45C259.919,272.451 261.165,271.672 262.71,271.115C264.255,270.558 265.962,270.279 267.831,270.279ZM268.221,273.854C266.299,273.738 264.988,274.334 264.287,275.641L270.869,275.67C270.765,275.113 270.46,274.68 269.953,274.373C269.447,274.065 268.87,273.892 268.221,273.854Z" style="fill:rgb(249,214,21);fill-rule:nonzero;"/>
                    <path d="M294.117,285.76L294.078,284.405C293.377,284.847 292.507,285.202 291.469,285.471C290.431,285.74 289.366,285.875 288.276,285.875C286.562,285.875 284.979,285.524 283.525,284.823C282.071,284.121 280.916,283.175 280.059,281.983C279.202,280.792 278.774,279.485 278.774,278.063C278.774,276.621 279.215,275.305 280.098,274.113C280.98,272.922 282.194,271.985 283.739,271.302C285.284,270.62 286.991,270.279 288.86,270.279C289.872,270.279 290.826,270.404 291.722,270.654C292.618,270.904 293.338,271.25 293.883,271.692L293.883,270.452L300.348,270.452L301.244,285.76L294.117,285.76ZM289.6,281.118C290.275,281.118 290.924,280.965 291.547,280.657C292.17,280.35 292.663,279.941 293.027,279.432C293.39,278.923 293.572,278.38 293.572,277.803C293.572,277.015 293.228,276.357 292.54,275.828C291.852,275.3 290.989,275.036 289.95,275.036C288.808,275.036 287.808,275.334 286.952,275.929C286.095,276.525 285.667,277.236 285.667,278.063C285.667,278.562 285.855,279.052 286.231,279.533C286.608,280.013 287.101,280.398 287.711,280.686C288.321,280.974 288.951,281.118 289.6,281.118Z" style="fill:rgb(249,214,21);fill-rule:nonzero;"/>
                    <path d="M315.691,285.039C313.744,285.673 311.914,285.99 310.2,285.99C307.838,285.99 305.929,285.423 304.476,284.289C303.022,283.156 302.308,281.56 302.334,279.504L302.412,265.321L309.772,263.706L309.811,277.89C309.811,278.678 310.096,279.259 310.667,279.634C311.239,280.009 311.901,280.196 312.653,280.196C313.199,280.196 313.64,280.109 313.978,279.936L315.691,285.039Z" style="fill:rgb(249,214,21);fill-rule:nonzero;"/>
                    <path d="M330.099,285.76L330.061,284.405C329.36,284.847 328.49,285.202 327.451,285.471C326.413,285.74 325.348,285.875 324.258,285.875C322.545,285.875 320.961,285.524 319.507,284.823C318.053,284.121 316.898,283.175 316.041,281.983C315.184,280.792 314.756,279.485 314.756,278.063C314.756,276.621 315.197,275.305 316.08,274.113C316.963,272.922 318.176,271.985 319.721,271.302C321.266,270.62 322.973,270.279 324.842,270.279C325.855,270.279 326.809,270.404 327.704,270.654C328.6,270.904 329.321,271.25 329.866,271.692L329.866,270.452L336.33,270.452L337.226,285.76L330.099,285.76ZM325.582,281.118C326.257,281.118 326.906,280.965 327.529,280.657C328.152,280.35 328.646,279.941 329.009,279.432C329.373,278.923 329.554,278.38 329.554,277.803C329.554,277.015 329.21,276.357 328.522,275.828C327.834,275.3 326.971,275.036 325.933,275.036C324.79,275.036 323.791,275.334 322.934,275.929C322.077,276.525 321.649,277.236 321.649,278.063C321.649,278.562 321.837,279.052 322.214,279.533C322.59,280.013 323.083,280.398 323.693,280.686C324.303,280.974 324.933,281.118 325.582,281.118Z" style="fill:rgb(249,214,21);fill-rule:nonzero;"/>
                    <path d="M352.764,270.077C354.192,270.097 355.561,270.486 356.872,271.245C358.183,272.004 359.241,272.989 360.046,274.2C360.851,275.41 361.253,276.669 361.253,277.976C361.253,279.398 360.864,280.724 360.085,281.954C359.306,283.184 358.255,284.16 356.931,284.88C355.607,285.601 354.179,285.962 352.647,285.962C351.401,285.962 350.168,285.798 348.947,285.471C347.727,285.145 346.715,284.722 345.91,284.203L345.91,285.817L338.316,285.817L338.316,262.986L346.105,262.524L346.027,271.461C347.792,270.481 350.038,270.02 352.764,270.077ZM350.194,281.061C350.869,281.061 351.524,280.912 352.16,280.614C352.796,280.316 353.302,279.927 353.679,279.446C354.055,278.966 354.244,278.466 354.244,277.947C354.244,277.121 353.835,276.405 353.017,275.8C352.199,275.194 351.258,274.892 350.194,274.892C349.077,274.892 348.097,275.194 347.253,275.8C346.41,276.405 345.988,277.111 345.988,277.919C345.988,278.437 346.189,278.942 346.591,279.432C346.994,279.922 347.519,280.316 348.169,280.614C348.818,280.912 349.493,281.061 350.194,281.061Z" style="fill:rgb(249,214,21);fill-rule:nonzero;"/>
                </g>
                <g transform="matrix(8.98754,0,0,12.141,5217.32,779.27)">
                    <path d="M226.825,285.962C224.255,285.962 221.873,285.447 219.679,284.419C217.485,283.391 215.746,282.017 214.461,280.297C213.176,278.577 212.533,276.727 212.533,274.747C212.533,272.729 213.195,270.88 214.519,269.198C215.843,267.516 217.641,266.181 219.913,265.191C222.184,264.201 224.657,263.706 227.331,263.706C229.279,263.706 231.154,263.98 232.959,264.528C234.763,265.076 236.327,265.907 237.651,267.022C238.975,268.136 239.91,269.491 240.455,271.086L233.679,272.614C233.29,271.788 232.511,271.057 231.342,270.423C230.174,269.789 228.798,269.472 227.215,269.472C225.241,269.472 223.599,269.919 222.288,270.812C220.977,271.706 220.322,272.999 220.322,274.69C220.322,275.824 220.633,276.809 221.256,277.645C221.879,278.481 222.71,279.115 223.749,279.547C224.787,279.98 225.916,280.196 227.137,280.196C228.227,280.196 229.24,280.023 230.174,279.677C231.109,279.331 231.881,278.903 232.491,278.394C233.101,277.885 233.497,277.4 233.679,276.938L240.027,278.553C239.715,279.898 238.91,281.138 237.612,282.272C236.314,283.405 234.705,284.304 232.783,284.967C230.862,285.63 228.876,285.962 226.825,285.962Z" style="fill:rgb(232,58,77);fill-rule:nonzero;"/>
                    <path d="M253.189,270.25C254.098,270.25 254.993,270.418 255.876,270.755C256.759,271.091 257.538,271.567 258.213,272.182L255.526,276.65C254.773,275.881 253.747,275.497 252.449,275.497C251.047,275.497 250.002,275.867 249.314,276.607C248.626,277.347 248.23,278.553 248.126,280.225L248.126,285.76L240.883,285.76L240.883,270.394L248.126,270.394L248.126,271.72C248.827,271.259 249.626,270.899 250.521,270.639C251.417,270.38 252.306,270.25 253.189,270.25Z" style="fill:rgb(232,58,77);fill-rule:nonzero;"/>
                    <path d="M269.116,269.587L263.664,269.184L267.169,265.494L273.244,266.82L269.116,269.587ZM267.831,270.279C271.076,270.279 273.595,270.981 275.386,272.384C277.177,273.786 278.073,275.699 278.073,278.12C278.073,278.524 278.06,278.831 278.034,279.043L264.248,279.158C264.56,279.792 264.995,280.316 265.553,280.729C266.111,281.142 266.767,281.368 267.52,281.407C269.597,281.522 271.102,281.07 272.037,280.052L277.606,281.234C277.268,282.137 276.619,282.949 275.659,283.67C274.698,284.39 273.549,284.953 272.212,285.356C270.875,285.76 269.493,285.962 268.065,285.962C267.727,285.962 267.468,285.952 267.286,285.933C265.495,285.837 263.839,285.404 262.321,284.635C260.802,283.867 259.595,282.858 258.699,281.608C257.803,280.359 257.356,278.995 257.356,277.515C257.356,277.227 257.368,277.006 257.394,276.852C257.498,275.583 258.024,274.45 258.972,273.45C259.919,272.451 261.165,271.672 262.71,271.115C264.255,270.558 265.962,270.279 267.831,270.279ZM268.221,273.854C266.299,273.738 264.988,274.334 264.287,275.641L270.869,275.67C270.765,275.113 270.46,274.68 269.953,274.373C269.447,274.065 268.87,273.892 268.221,273.854Z" style="fill:rgb(232,58,77);fill-rule:nonzero;"/>
                    <path d="M294.117,285.76L294.078,284.405C293.377,284.847 292.507,285.202 291.469,285.471C290.431,285.74 289.366,285.875 288.276,285.875C286.562,285.875 284.979,285.524 283.525,284.823C282.071,284.121 280.916,283.175 280.059,281.983C279.202,280.792 278.774,279.485 278.774,278.063C278.774,276.621 279.215,275.305 280.098,274.113C280.98,272.922 282.194,271.985 283.739,271.302C285.284,270.62 286.991,270.279 288.86,270.279C289.872,270.279 290.826,270.404 291.722,270.654C292.618,270.904 293.338,271.25 293.883,271.692L293.883,270.452L300.348,270.452L301.244,285.76L294.117,285.76ZM289.6,281.118C290.275,281.118 290.924,280.965 291.547,280.657C292.17,280.35 292.663,279.941 293.027,279.432C293.39,278.923 293.572,278.38 293.572,277.803C293.572,277.015 293.228,276.357 292.54,275.828C291.852,275.3 290.989,275.036 289.95,275.036C288.808,275.036 287.808,275.334 286.952,275.929C286.095,276.525 285.667,277.236 285.667,278.063C285.667,278.562 285.855,279.052 286.231,279.533C286.608,280.013 287.101,280.398 287.711,280.686C288.321,280.974 288.951,281.118 289.6,281.118Z" style="fill:rgb(232,58,77);fill-rule:nonzero;"/>
                    <path d="M315.691,285.039C313.744,285.673 311.914,285.99 310.2,285.99C307.838,285.99 305.929,285.423 304.476,284.289C303.022,283.156 302.308,281.56 302.334,279.504L302.412,265.321L309.772,263.706L309.811,277.89C309.811,278.678 310.096,279.259 310.667,279.634C311.239,280.009 311.901,280.196 312.653,280.196C313.199,280.196 313.64,280.109 313.978,279.936L315.691,285.039Z" style="fill:rgb(232,58,77);fill-rule:nonzero;"/>
                    <path d="M330.099,285.76L330.061,284.405C329.36,284.847 328.49,285.202 327.451,285.471C326.413,285.74 325.348,285.875 324.258,285.875C322.545,285.875 320.961,285.524 319.507,284.823C318.053,284.121 316.898,283.175 316.041,281.983C315.184,280.792 314.756,279.485 314.756,278.063C314.756,276.621 315.197,275.305 316.08,274.113C316.963,272.922 318.176,271.985 319.721,271.302C321.266,270.62 322.973,270.279 324.842,270.279C325.855,270.279 326.809,270.404 327.704,270.654C328.6,270.904 329.321,271.25 329.866,271.692L329.866,270.452L336.33,270.452L337.226,285.76L330.099,285.76ZM325.582,281.118C326.257,281.118 326.906,280.965 327.529,280.657C328.152,280.35 328.646,279.941 329.009,279.432C329.373,278.923 329.554,278.38 329.554,277.803C329.554,277.015 329.21,276.357 328.522,275.828C327.834,275.3 326.971,275.036 325.933,275.036C324.79,275.036 323.791,275.334 322.934,275.929C322.077,276.525 321.649,277.236 321.649,278.063C321.649,278.562 321.837,279.052 322.214,279.533C322.59,280.013 323.083,280.398 323.693,280.686C324.303,280.974 324.933,281.118 325.582,281.118Z" style="fill:rgb(232,58,77);fill-rule:nonzero;"/>
                    <path d="M352.764,270.077C354.192,270.097 355.561,270.486 356.872,271.245C358.183,272.004 359.241,272.989 360.046,274.2C360.851,275.41 361.253,276.669 361.253,277.976C361.253,279.398 360.864,280.724 360.085,281.954C359.306,283.184 358.255,284.16 356.931,284.88C355.607,285.601 354.179,285.962 352.647,285.962C351.401,285.962 350.168,285.798 348.947,285.471C347.727,285.145 346.715,284.722 345.91,284.203L345.91,285.817L338.316,285.817L338.316,262.986L346.105,262.524L346.027,271.461C347.792,270.481 350.038,270.02 352.764,270.077ZM350.194,281.061C350.869,281.061 351.524,280.912 352.16,280.614C352.796,280.316 353.302,279.927 353.679,279.446C354.055,278.966 354.244,278.466 354.244,277.947C354.244,277.121 353.835,276.405 353.017,275.8C352.199,275.194 351.258,274.892 350.194,274.892C349.077,274.892 348.097,275.194 347.253,275.8C346.41,276.405 345.988,277.111 345.988,277.919C345.988,278.437 346.189,278.942 346.591,279.432C346.994,279.922 347.519,280.316 348.169,280.614C348.818,280.912 349.493,281.061 350.194,281.061Z" style="fill:rgb(232,58,77);fill-rule:nonzero;"/>
                </g>
                <g transform="matrix(8.98754,0,0,12.141,5224.25,763.462)">
                    <path d="M226.825,285.962C224.255,285.962 221.873,285.447 219.679,284.419C217.485,283.391 215.746,282.017 214.461,280.297C213.176,278.577 212.533,276.727 212.533,274.747C212.533,272.729 213.195,270.88 214.519,269.198C215.843,267.516 217.641,266.181 219.913,265.191C222.184,264.201 224.657,263.706 227.331,263.706C229.279,263.706 231.154,263.98 232.959,264.528C234.763,265.076 236.327,265.907 237.651,267.022C238.975,268.136 239.91,269.491 240.455,271.086L233.679,272.614C233.29,271.788 232.511,271.057 231.342,270.423C230.174,269.789 228.798,269.472 227.215,269.472C225.241,269.472 223.599,269.919 222.288,270.812C220.977,271.706 220.322,272.999 220.322,274.69C220.322,275.824 220.633,276.809 221.256,277.645C221.879,278.481 222.71,279.115 223.749,279.547C224.787,279.98 225.916,280.196 227.137,280.196C228.227,280.196 229.24,280.023 230.174,279.677C231.109,279.331 231.881,278.903 232.491,278.394C233.101,277.885 233.497,277.4 233.679,276.938L240.027,278.553C239.715,279.898 238.91,281.138 237.612,282.272C236.314,283.405 234.705,284.304 232.783,284.967C230.862,285.63 228.876,285.962 226.825,285.962Z" style="fill:rgb(64,34,84);fill-rule:nonzero;"/>
                    <path d="M253.189,270.25C254.098,270.25 254.993,270.418 255.876,270.755C256.759,271.091 257.538,271.567 258.213,272.182L255.526,276.65C254.773,275.881 253.747,275.497 252.449,275.497C251.047,275.497 250.002,275.867 249.314,276.607C248.626,277.347 248.23,278.553 248.126,280.225L248.126,285.76L240.883,285.76L240.883,270.394L248.126,270.394L248.126,271.72C248.827,271.259 249.626,270.899 250.521,270.639C251.417,270.38 252.306,270.25 253.189,270.25Z" style="fill:rgb(64,34,84);fill-rule:nonzero;"/>
                    <path d="M269.116,269.587L263.664,269.184L267.169,265.494L273.244,266.82L269.116,269.587ZM267.831,270.279C271.076,270.279 273.595,270.981 275.386,272.384C277.177,273.786 278.073,275.699 278.073,278.12C278.073,278.524 278.06,278.831 278.034,279.043L264.248,279.158C264.56,279.792 264.995,280.316 265.553,280.729C266.111,281.142 266.767,281.368 267.52,281.407C269.597,281.522 271.102,281.07 272.037,280.052L277.606,281.234C277.268,282.137 276.619,282.949 275.659,283.67C274.698,284.39 273.549,284.953 272.212,285.356C270.875,285.76 269.493,285.962 268.065,285.962C267.727,285.962 267.468,285.952 267.286,285.933C265.495,285.837 263.839,285.404 262.321,284.635C260.802,283.867 259.595,282.858 258.699,281.608C257.803,280.359 257.356,278.995 257.356,277.515C257.356,277.227 257.368,277.006 257.394,276.852C257.498,275.583 258.024,274.45 258.972,273.45C259.919,272.451 261.165,271.672 262.71,271.115C264.255,270.558 265.962,270.279 267.831,270.279ZM268.221,273.854C266.299,273.738 264.988,274.334 264.287,275.641L270.869,275.67C270.765,275.113 270.46,274.68 269.953,274.373C269.447,274.065 268.87,273.892 268.221,273.854Z" style="fill:rgb(64,34,84);fill-rule:nonzero;"/>
                    <path d="M294.117,285.76L294.078,284.405C293.377,284.847 292.507,285.202 291.469,285.471C290.431,285.74 289.366,285.875 288.276,285.875C286.562,285.875 284.979,285.524 283.525,284.823C282.071,284.121 280.916,283.175 280.059,281.983C279.202,280.792 278.774,279.485 278.774,278.063C278.774,276.621 279.215,275.305 280.098,274.113C280.98,272.922 282.194,271.985 283.739,271.302C285.284,270.62 286.991,270.279 288.86,270.279C289.872,270.279 290.826,270.404 291.722,270.654C292.618,270.904 293.338,271.25 293.883,271.692L293.883,270.452L300.348,270.452L301.244,285.76L294.117,285.76ZM289.6,281.118C290.275,281.118 290.924,280.965 291.547,280.657C292.17,280.35 292.663,279.941 293.027,279.432C293.39,278.923 293.572,278.38 293.572,277.803C293.572,277.015 293.228,276.357 292.54,275.828C291.852,275.3 290.989,275.036 289.95,275.036C288.808,275.036 287.808,275.334 286.952,275.929C286.095,276.525 285.667,277.236 285.667,278.063C285.667,278.562 285.855,279.052 286.231,279.533C286.608,280.013 287.101,280.398 287.711,280.686C288.321,280.974 288.951,281.118 289.6,281.118Z" style="fill:rgb(64,34,84);fill-rule:nonzero;"/>
                    <path d="M315.691,285.039C313.744,285.673 311.914,285.99 310.2,285.99C307.838,285.99 305.929,285.423 304.476,284.289C303.022,283.156 302.308,281.56 302.334,279.504L302.412,265.321L309.772,263.706L309.811,277.89C309.811,278.678 310.096,279.259 310.667,279.634C311.239,280.009 311.901,280.196 312.653,280.196C313.199,280.196 313.64,280.109 313.978,279.936L315.691,285.039Z" style="fill:rgb(64,34,84);fill-rule:nonzero;"/>
                    <path d="M330.099,285.76L330.061,284.405C329.36,284.847 328.49,285.202 327.451,285.471C326.413,285.74 325.348,285.875 324.258,285.875C322.545,285.875 320.961,285.524 319.507,284.823C318.053,284.121 316.898,283.175 316.041,281.983C315.184,280.792 314.756,279.485 314.756,278.063C314.756,276.621 315.197,275.305 316.08,274.113C316.963,272.922 318.176,271.985 319.721,271.302C321.266,270.62 322.973,270.279 324.842,270.279C325.855,270.279 326.809,270.404 327.704,270.654C328.6,270.904 329.321,271.25 329.866,271.692L329.866,270.452L336.33,270.452L337.226,285.76L330.099,285.76ZM325.582,281.118C326.257,281.118 326.906,280.965 327.529,280.657C328.152,280.35 328.646,279.941 329.009,279.432C329.373,278.923 329.554,278.38 329.554,277.803C329.554,277.015 329.21,276.357 328.522,275.828C327.834,275.3 326.971,275.036 325.933,275.036C324.79,275.036 323.791,275.334 322.934,275.929C322.077,276.525 321.649,277.236 321.649,278.063C321.649,278.562 321.837,279.052 322.214,279.533C322.59,280.013 323.083,280.398 323.693,280.686C324.303,280.974 324.933,281.118 325.582,281.118Z" style="fill:rgb(64,34,84);fill-rule:nonzero;"/>
                    <path d="M352.764,270.077C354.192,270.097 355.561,270.486 356.872,271.245C358.183,272.004 359.241,272.989 360.046,274.2C360.851,275.41 361.253,276.669 361.253,277.976C361.253,279.398 360.864,280.724 360.085,281.954C359.306,283.184 358.255,284.16 356.931,284.88C355.607,285.601 354.179,285.962 352.647,285.962C351.401,285.962 350.168,285.798 348.947,285.471C347.727,285.145 346.715,284.722 345.91,284.203L345.91,285.817L338.316,285.817L338.316,262.986L346.105,262.524L346.027,271.461C347.792,270.481 350.038,270.02 352.764,270.077ZM350.194,281.061C350.869,281.061 351.524,280.912 352.16,280.614C352.796,280.316 353.302,279.927 353.679,279.446C354.055,278.966 354.244,278.466 354.244,277.947C354.244,277.121 353.835,276.405 353.017,275.8C352.199,275.194 351.258,274.892 350.194,274.892C349.077,274.892 348.097,275.194 347.253,275.8C346.41,276.405 345.988,277.111 345.988,277.919C345.988,278.437 346.189,278.942 346.591,279.432C346.994,279.922 347.519,280.316 348.169,280.614C348.818,280.912 349.493,281.061 350.194,281.061Z" style="fill:rgb(64,34,84);fill-rule:nonzero;"/>
                </g>
            </g>
        </g>
    </g>
    <defs>
        <radialGradient id="_Radial1" cx="0" cy="0" r="1" gradientUnits="userSpaceOnUse" gradientTransform="matrix(-57.2782,142.873,-272.377,-109.197,214.543,194.629)"><stop offset="0" style="stop-color:rgb(249,214,21);stop-opacity:1"/><stop offset="0.41" style="stop-color:rgb(244,171,37);stop-opacity:1"/><stop offset="0.87" style="stop-color:rgb(232,58,77);stop-opacity:1"/><stop offset="1" style="stop-color:rgb(173,60,128);stop-opacity:1"/></radialGradient>
    </defs>
</svg>
