<?xml version="1.0" encoding="UTF-8" standalone="no"?>
<!DOCTYPE svg PUBLIC "-//W3C//DTD SVG 1.1//EN" "http://www.w3.org/Graphics/SVG/1.1/DTD/svg11.dtd">
<svg width="100%" height="100%" viewBox="0 0 555 555" version="1.1" xmlns="http://www.w3.org/2000/svg" xmlns:xlink="http://www.w3.org/1999/xlink" xml:space="preserve" xmlns:serif="http://www.serif.com/" style="fill-rule:evenodd;clip-rule:evenodd;stroke-linecap:round;stroke-linejoin:round;stroke-miterlimit:1.5;">
    <g transform="matrix(1,0,0,1,681.814,100.256)">
        <rect id="Artboard3" x="-681.814" y="-100.256" width="554.261" height="554.261" style="fill:none;"/>
        <g id="Artboard31" serif:id="Artboard3">
            <g id="Logo" transform="matrix(3.16986,0,0,3.16986,-3196.99,-1213.45)">
                <g id="Fossil-Background" serif:id="Fossil Background" transform="matrix(1,0,0,1,276.198,-57.6336)">
                    <path d="M537,440.5C539.443,436.687 573.065,413.637 592,413C610.935,412.363 644.103,424.68 647,426C649.897,427.32 677.9,453.177 682.5,463.5C687.1,473.823 686.917,521.017 685.5,523.5C684.083,525.983 669.013,560.153 662,565C654.987,569.847 613.066,579.79 600.5,579.5C587.934,579.21 551.304,561.941 542,551C532.696,540.059 522.862,507.846 523,500C523.436,475.303 533.847,445.422 537,440.5Z" style="fill:rgb(64,54,74);"/> 
                </g>
                <g id="Bones" transform="matrix(1,0,0,1,67.8908,-30.9932)">
                    <path d="M779.352,416.02C780.594,414.737 783.352,435.52 783.352,435.52C783.352,435.52 801.231,410.897 803.852,410.02C806.474,409.142 801.805,438.112 802.852,440.52C803.9,442.927 808.553,442.288 810.352,439.52C812.152,436.751 807.049,431.073 807.352,430.52C810.049,425.597 826.699,423.811 825.852,442.02C825.686,445.596 836.272,443.706 836.852,441.02C837.33,438.808 834.345,432.408 836.107,431.02C841.005,427.163 851.74,429.648 849.352,446.02C849.087,447.842 850.634,451.056 853.852,451.52C857.071,451.983 857.359,443.198 860.852,442.52C865.849,441.549 869.605,452.261 867.352,458.52C866.504,460.876 864.006,461.652 864.282,463.339C864.654,465.61 867.568,468.9 869.697,470.726C872.094,472.783 874.767,464.414 876.025,464.416C880.125,464.421 881.646,473.389 880.791,475.897C880.218,477.579 877.795,480.052 874.852,480.02C871.91,479.987 870.762,483.505 869.352,488.52C866.514,498.617 858.401,523.404 834.852,526.52C811.304,529.635 796.368,513.722 795.352,507.02C794.863,503.792 797.42,504.725 798.852,506.02C800.285,507.314 811.723,520.668 825.352,520.02C844.536,519.107 848.133,511.345 853.352,501.743C855.285,498.188 855.861,495.917 855.861,495.917C855.861,495.917 852.286,499.248 846.352,499.167C844.857,499.147 839.731,494.689 844.696,486.63C845.799,484.84 847.26,486.648 851.058,486.52C854.857,486.391 856.484,484.13 856.352,482.02C856.221,479.909 854.287,472.826 851.625,472.52C848.962,472.213 851.563,479.009 839.852,483.256C836.719,484.392 833.626,478.501 833.852,474.02C833.879,473.5 843.365,470.133 842.852,464.02C842.579,460.759 833.288,460.899 831.852,461.52C831.588,461.634 831.289,473.601 822.985,476.487C820.843,477.231 814.735,475.245 816.747,472.343C818.758,469.442 820.518,461.227 814.059,460.52C809.194,459.986 806.525,459.962 806.852,461.52C808.473,469.232 806.198,482.29 806.198,482.29C806.198,482.29 815.629,481.963 817.662,484.52C819.696,487.076 808.823,485.601 806.352,487.52C805.976,487.812 814.854,493.865 811.95,496.02C810.587,497.031 805.525,491.877 802.913,491.143C801.443,490.731 801.597,491.395 797.415,492.236C794.162,492.89 788.428,494.232 776.352,491.52C766.903,489.397 762.04,484.728 757.813,478.528C756.953,477.266 746.574,481.494 745.611,480.305C743.431,477.613 752.952,474.963 754.352,473.834C755.753,472.705 745.932,468.05 747.198,465.322C748.296,462.957 755.989,468.461 756.842,468.57C757.768,468.688 757.43,438.662 779.352,416.02ZM782.048,478.013C783.96,484.945 794.58,484.539 797.589,482.679C800.597,480.818 801.954,470.077 800.098,466.848C798.243,463.62 790.123,461.651 786.456,463.309C780.47,466.016 781.058,474.424 782.048,478.013Z" style="fill:rgb(255,255,229);"/>
                </g>
                <g transform="matrix(1,0,0,1,680.48,3.85455)">
                    <path d="M221.06,378.429L219.462,373.009L224.338,376.452L227.188,375.233L225.985,379.104L228.703,381.773L224.947,381.74L222.608,385.397L221.488,381.411L217.963,379.796L221.06,378.429Z" style="fill:rgb(255,255,229);stroke:rgb(255,255,229);stroke-width:1.67px;"/>
                </g>
                <g transform="matrix(1,0,0,1,645.676,2.47049)">
                    <path d="M185.141,476.207L188.868,476.515L189.898,472.232L192.513,476.248L196.014,475.651L193.811,478.183L194.325,482.672L190.619,480.16L187.015,481.663L187.901,478.472L185.141,476.207Z" style="fill:rgb(255,255,229);stroke:rgb(255,255,229);stroke-width:1.67px;"/>
                </g>
                <g transform="matrix(0.756411,0,0,0.701759,703.637,149.923)">
                    <path d="M196.12,492.778L199.821,492.572L201.242,490.394L202.133,492.829L204.743,493.226L203.039,495.311L203.507,498.811L201.088,497.112L197.844,498.502L199.013,495.182L196.12,492.778Z" style="fill:rgb(255,255,229);stroke:rgb(255,255,229);stroke-width:1.67px;"/>
                </g>
            </g>
        </g>
    </g>
</svg>
