<?xml version="1.0" encoding="UTF-8" standalone="no"?>
<!DOCTYPE svg PUBLIC "-//W3C//DTD SVG 1.1//EN" "http://www.w3.org/Graphics/SVG/1.1/DTD/svg11.dtd">
<svg width="100%" height="100%" viewBox="0 0 825 190" version="1.1" xmlns="http://www.w3.org/2000/svg" xmlns:xlink="http://www.w3.org/1999/xlink" xml:space="preserve" xmlns:serif="http://www.serif.com/" style="fill-rule:evenodd;clip-rule:evenodd;stroke-linecap:round;stroke-linejoin:round;stroke-miterlimit:1.5;">
    <g transform="matrix(1,0,0,1,-3391.66,-436.488)">
        <g transform="matrix(1,0,0,1,-0.988646,0)">
            <rect id="Artboard4" x="3256.99" y="395" width="1068" height="291" style="fill:none;"/>
            <g id="Artboard41" serif:id="Artboard4">
                <g id="Logo" transform="matrix(1.13933,0,0,1.13933,2482.09,31.6345)">
                    <g id="Fossil-Background" serif:id="Fossil Background" transform="matrix(1,0,0,1,276.198,-57.6336)">
                        <path d="M537,440.5C539.443,436.687 573.065,413.637 592,413C610.935,412.363 644.103,424.68 647,426C649.897,427.32 677.9,453.177 682.5,463.5C687.1,473.823 686.917,521.017 685.5,523.5C684.083,525.983 669.013,560.153 662,565C654.987,569.847 613.066,579.79 600.5,579.5C587.934,579.21 551.304,561.941 542,551C532.696,540.059 522.862,507.846 523,500C523.436,475.303 533.847,445.422 537,440.5Z" style="fill:rgb(206, 206, 153);"/> 
                    </g>
                    <g id="Bones" transform="matrix(1,0,0,1,67.8908,-30.9932)">
                        <path d="M779.352,416.02C780.594,414.737 783.352,435.52 783.352,435.52C783.352,435.52 801.231,410.897 803.852,410.02C806.474,409.142 801.805,438.112 802.852,440.52C803.9,442.927 808.553,442.288 810.352,439.52C812.152,436.751 807.049,431.073 807.352,430.52C810.049,425.597 826.699,423.811 825.852,442.02C825.686,445.596 836.272,443.706 836.852,441.02C837.33,438.808 834.345,432.408 836.107,431.02C841.005,427.163 851.74,429.648 849.352,446.02C849.087,447.842 850.634,451.056 853.852,451.52C857.071,451.983 857.359,443.198 860.852,442.52C865.849,441.549 869.605,452.261 867.352,458.52C866.504,460.876 864.006,461.652 864.282,463.339C864.654,465.61 867.568,468.9 869.697,470.726C872.094,472.783 874.767,464.414 876.025,464.416C880.125,464.421 881.646,473.389 880.791,475.897C880.218,477.579 877.795,480.052 874.852,480.02C871.91,479.987 870.762,483.505 869.352,488.52C866.514,498.617 858.401,523.404 834.852,526.52C811.304,529.635 796.368,513.722 795.352,507.02C794.863,503.792 797.42,504.725 798.852,506.02C800.285,507.314 811.723,520.668 825.352,520.02C844.536,519.107 848.133,511.345 853.352,501.743C855.285,498.188 855.861,495.917 855.861,495.917C855.861,495.917 852.286,499.248 846.352,499.167C844.857,499.147 839.731,494.689 844.696,486.63C845.799,484.84 847.26,486.648 851.058,486.52C854.857,486.391 856.484,484.13 856.352,482.02C856.221,479.909 854.287,472.826 851.625,472.52C848.962,472.213 851.563,479.009 839.852,483.256C836.719,484.392 833.626,478.501 833.852,474.02C833.879,473.5 843.365,470.133 842.852,464.02C842.579,460.759 833.288,460.899 831.852,461.52C831.588,461.634 831.289,473.601 822.985,476.487C820.843,477.231 814.735,475.245 816.747,472.343C818.758,469.442 820.518,461.227 814.059,460.52C809.194,459.986 806.525,459.962 806.852,461.52C808.473,469.232 806.198,482.29 806.198,482.29C806.198,482.29 815.629,481.963 817.662,484.52C819.696,487.076 808.823,485.601 806.352,487.52C805.976,487.812 814.854,493.865 811.95,496.02C810.587,497.031 805.525,491.877 802.913,491.143C801.443,490.731 801.597,491.395 797.415,492.236C794.162,492.89 788.428,494.232 776.352,491.52C766.903,489.397 762.04,484.728 757.813,478.528C756.953,477.266 746.574,481.494 745.611,480.305C743.431,477.613 752.952,474.963 754.352,473.834C755.753,472.705 745.932,468.05 747.198,465.322C748.296,462.957 755.989,468.461 756.842,468.57C757.768,468.688 757.43,438.662 779.352,416.02ZM782.048,478.013C783.96,484.945 794.58,484.539 797.589,482.679C800.597,480.818 801.954,470.077 800.098,466.848C798.243,463.62 790.123,461.651 786.456,463.309C780.47,466.016 781.058,474.424 782.048,478.013Z" style="fill:rgb(255,255,229);"/>
                    </g>
                    <g transform="matrix(1,0,0,1,680.48,3.85455)">
                        <path d="M221.06,378.429L219.462,373.009L224.338,376.452L227.188,375.233L225.985,379.104L228.703,381.773L224.947,381.74L222.608,385.397L221.488,381.411L217.963,379.796L221.06,378.429Z" style="fill:rgb(255,255,229);stroke:rgb(255,255,229);stroke-width:1.67px;"/>
                    </g>
                    <g transform="matrix(1,0,0,1,645.676,2.47049)">
                        <path d="M185.141,476.207L188.868,476.515L189.898,472.232L192.513,476.248L196.014,475.651L193.811,478.183L194.325,482.672L190.619,480.16L187.015,481.663L187.901,478.472L185.141,476.207Z" style="fill:rgb(255,255,229);stroke:rgb(255,255,229);stroke-width:1.67px;"/>
                    </g>
                    <g transform="matrix(0.756411,0,0,0.701759,703.637,149.923)">
                        <path d="M196.12,492.778L199.821,492.572L201.242,490.394L202.133,492.829L204.743,493.226L203.039,495.311L203.507,498.811L201.088,497.112L197.844,498.502L199.013,495.182L196.12,492.778Z" style="fill:rgb(255,255,229);stroke:rgb(255,255,229);stroke-width:1.67px;"/>
                    </g>
                </g>
                <g transform="matrix(2.22247,0,0,2.22247,1845.85,177.751)">
                    <path d="M812.064,155.341L815.092,155.341C815.596,155.341 815.958,155.418 816.178,155.573C816.398,155.727 816.491,155.983 816.459,156.342L816.264,159.247C816.231,159.833 816.142,160.203 815.995,160.358C815.849,160.512 815.523,160.59 815.018,160.59C814.905,160.59 814.636,160.573 814.213,160.541C813.92,160.524 813.676,160.516 813.48,160.516C812.797,160.516 812.333,160.74 812.089,161.188C811.845,161.635 811.723,162.486 811.723,163.739C811.723,165.448 811.91,166.888 812.284,168.06C812.431,168.565 812.642,168.935 812.919,169.171C813.196,169.407 813.651,169.615 814.286,169.794C815.718,170.217 816.435,171.006 816.435,172.162C816.435,173.383 815.6,174.261 813.932,174.799C812.264,175.336 809.525,175.604 805.717,175.604C800.069,175.604 797.245,174.481 797.245,172.235C797.245,171.682 797.363,171.275 797.599,171.014C797.835,170.754 798.352,170.453 799.149,170.111C800.012,169.72 800.533,168.996 800.712,167.938C800.989,166.343 801.127,164.634 801.127,162.811C801.127,161.997 800.984,161.432 800.7,161.115C800.415,160.797 799.898,160.647 799.149,160.663C798.27,160.663 797.709,160.618 797.465,160.529C797.221,160.439 797.107,160.223 797.123,159.882L797.318,156.805C797.351,156.301 797.436,155.988 797.575,155.865C797.713,155.743 798.1,155.666 798.734,155.634C799.337,155.601 799.638,155.308 799.638,154.755C799.638,154.527 799.418,154.006 798.978,153.192C798.23,151.841 797.855,150.49 797.855,149.139C797.855,147.154 798.539,145.534 799.906,144.281C801.908,142.442 804.781,141.522 808.524,141.522C811.601,141.522 814.058,142.247 815.897,143.695C817.313,144.818 818.021,146.112 818.021,147.577C818.021,148.635 817.671,149.526 816.972,150.25C816.272,150.975 815.401,151.337 814.359,151.337C813.187,151.337 812.064,150.93 810.99,150.116C810.73,149.904 810.111,149.261 809.135,148.187C808.435,147.439 807.735,147.064 807.035,147.064C806.579,147.064 806.189,147.227 805.863,147.552C805.538,147.878 805.375,148.277 805.375,148.749C805.375,150.035 806.596,151.41 809.037,152.875C809.786,153.33 810.294,153.689 810.563,153.949C810.831,154.209 811.072,154.576 811.283,155.048C811.397,155.243 811.657,155.341 812.064,155.341Z" style="fill:rgb(206, 206, 153);fill-rule:nonzero;"/> 
                    <path d="M840.702,164.178L829.227,164.178C828.723,164.178 828.471,164.398 828.471,164.838C828.471,165.896 829.044,166.892 830.192,167.828C831.339,168.764 832.572,169.232 833.891,169.232C834.672,169.232 835.539,169.082 836.491,168.781C837.443,168.479 838.228,168.109 838.847,167.67C839.4,167.279 839.839,167.084 840.165,167.084C840.588,167.084 841.003,167.344 841.41,167.865C841.817,168.386 842.02,168.923 842.02,169.476C842.02,170.648 841.288,171.779 839.823,172.87C837.235,174.807 834.249,175.775 830.863,175.775C827.445,175.775 824.581,174.782 822.269,172.797C821.146,171.82 820.219,170.64 819.486,169.257C818.526,167.417 818.046,165.481 818.046,163.446C818.046,160.712 818.876,158.254 820.536,156.073C821.968,154.185 823.791,152.777 826.005,151.849C827.665,151.149 829.463,150.8 831.4,150.8C834.493,150.8 837.121,151.678 839.286,153.436C840.377,154.315 841.255,155.357 841.923,156.561C842.688,157.928 843.07,159.263 843.07,160.565C843.07,161.623 842.851,162.49 842.411,163.165C841.972,163.841 841.402,164.178 840.702,164.178ZM829.862,159.613L832.328,159.613C833.37,159.613 833.891,159.133 833.891,158.173C833.891,157.294 833.638,156.578 833.134,156.024C832.629,155.471 831.97,155.194 831.156,155.194C830.245,155.194 829.529,155.552 829.008,156.268C828.519,156.936 828.275,157.611 828.275,158.295C828.275,158.783 828.393,159.125 828.629,159.32C828.865,159.515 829.276,159.613 829.862,159.613Z" style="fill:rgb(206, 206, 153);fill-rule:nonzero;"/> 
                    <path d="M858.598,155.756L858.598,163.593C858.598,167.059 858.65,169.078 858.756,169.647C858.862,170.217 859.265,170.656 859.965,170.966C860.567,171.226 860.97,171.47 861.173,171.698C861.377,171.926 861.478,172.251 861.478,172.675C861.478,173.212 861.287,173.7 860.905,174.139C860.522,174.579 860.014,174.888 859.379,175.067C858.207,175.425 856.229,175.604 853.446,175.604C850.305,175.604 848.1,175.368 846.83,174.896C846.244,174.685 845.764,174.355 845.39,173.907C845.015,173.46 844.828,172.992 844.828,172.504C844.828,172.113 844.93,171.812 845.133,171.6C845.337,171.389 845.78,171.136 846.464,170.844C847.099,170.567 847.489,169.81 847.636,168.573C847.896,166.457 848.026,163.446 848.026,159.54C848.026,155.568 847.912,153.013 847.685,151.874C847.457,150.734 846.887,149.888 845.976,149.335C845.292,148.944 844.824,148.574 844.572,148.224C844.319,147.874 844.193,147.447 844.193,146.942C844.193,146.145 844.576,145.449 845.341,144.855C846.106,144.261 847.326,143.711 849.003,143.207C850.126,142.865 851.583,142.539 853.373,142.23C855.163,141.921 856.465,141.766 857.279,141.766C858.565,141.766 859.208,142.564 859.208,144.159C859.208,144.68 859.127,145.876 858.964,147.748C858.752,150.661 858.63,153.33 858.598,155.756Z" style="fill:rgb(206, 206, 153);fill-rule:nonzero;"/>
                    <path d="M876.493,152.484L876.493,166.669C876.493,167.792 876.595,168.614 876.798,169.135C877.002,169.655 877.413,170.135 878.031,170.575C878.536,170.933 878.873,171.238 879.044,171.49C879.215,171.743 879.301,172.064 879.301,172.455C879.301,174.554 876.64,175.604 871.317,175.604C868.453,175.604 866.182,175.376 864.506,174.921C863.936,174.758 863.476,174.473 863.126,174.066C862.776,173.659 862.601,173.195 862.601,172.675C862.601,172.235 862.691,171.893 862.87,171.649C863.049,171.405 863.505,171.014 864.237,170.477C864.742,170.103 865.1,169.493 865.311,168.646C865.523,167.8 865.629,166.538 865.629,164.862C865.629,164.325 865.592,163.32 865.519,161.847C865.446,160.374 865.393,159.515 865.36,159.271C865.263,158.604 864.807,158.091 863.993,157.733C862.984,157.294 862.479,156.643 862.479,155.78C862.479,154.755 863.139,153.99 864.457,153.485C866.28,152.785 868.233,152.191 870.316,151.703C872.4,151.215 874.011,150.97 875.15,150.97C876.046,150.97 876.493,151.475 876.493,152.484ZM871.659,141.791C873.075,141.791 874.198,142.055 875.028,142.584C875.858,143.113 876.273,143.825 876.273,144.72C876.273,145.974 875.647,146.967 874.393,147.699C872.408,148.855 870.007,149.432 867.191,149.432C866.003,149.432 865.059,149.205 864.359,148.749C863.415,148.163 862.943,147.349 862.943,146.307C862.943,144.908 863.944,143.809 865.946,143.011C867.981,142.198 869.885,141.791 871.659,141.791Z" style="fill:rgb(206, 206, 153);fill-rule:nonzero;"/>
                    <path d="M890.507,150.8C891.321,150.8 892.647,150.979 894.486,151.337C894.861,151.402 895.17,151.434 895.414,151.434C895.691,151.434 896.228,151.288 897.025,150.995C897.4,150.848 897.717,150.775 897.977,150.775C898.726,150.775 899.483,151.255 900.248,152.216C900.866,152.981 901.371,153.819 901.762,154.73C902.152,155.642 902.348,156.431 902.348,157.098C902.348,157.749 902.12,158.291 901.664,158.722C901.208,159.153 900.639,159.369 899.955,159.369C899.385,159.369 898.877,159.231 898.429,158.954C897.982,158.677 897.261,158.067 896.268,157.123C895.227,156.114 894.364,155.609 893.681,155.609C893.225,155.609 892.83,155.776 892.497,156.11C892.163,156.443 891.996,156.838 891.996,157.294C891.996,158.091 892.761,158.84 894.291,159.54C897.042,160.777 899.149,162.128 900.614,163.593C901.851,164.83 902.47,166.343 902.47,168.134C902.47,170.396 901.477,172.284 899.491,173.798C897.782,175.116 895.691,175.775 893.217,175.775C892.582,175.775 891.426,175.669 889.75,175.458C888.171,175.279 887.284,175.189 887.089,175.189C886.877,175.189 886.633,175.214 886.356,175.262C885.884,175.328 885.543,175.36 885.331,175.36C884.566,175.36 883.964,175.165 883.524,174.774C882.857,174.172 882.239,173.224 881.669,171.93C881.099,170.636 880.814,169.525 880.814,168.597C880.814,167.1 881.4,166.351 882.572,166.351C883.028,166.351 883.447,166.502 883.83,166.803C884.212,167.104 885.014,167.906 886.234,169.208C886.902,169.924 887.455,170.416 887.894,170.685C888.334,170.953 888.806,171.088 889.31,171.088C889.848,171.088 890.279,170.945 890.604,170.66C890.93,170.376 891.093,169.997 891.093,169.525C891.093,168.793 890.466,168.125 889.213,167.523C886.592,166.237 884.7,164.911 883.537,163.544C882.373,162.177 881.791,160.598 881.791,158.807C881.791,156.871 882.385,155.202 883.573,153.802C885.266,151.801 887.577,150.8 890.507,150.8Z" style="fill:rgb(206, 206, 153);fill-rule:nonzero;"/>
                    <path d="M928.91,150.97C929.838,150.97 930.302,151.63 930.302,152.948L930.302,153.363C930.285,153.623 930.277,153.835 930.277,153.998C930.277,154.877 930.538,155.316 931.059,155.316C931.335,155.316 931.767,154.966 932.352,154.266C933.231,153.257 934.338,152.456 935.673,151.862C937.007,151.267 938.375,150.97 939.774,150.97C942.492,150.97 944.38,151.963 945.438,153.949C945.845,154.681 946.179,155.048 946.439,155.048C946.618,155.048 947.042,154.722 947.709,154.071C949.825,152.004 952.226,150.97 954.911,150.97C957.011,150.97 958.728,151.548 960.062,152.704C961.462,153.908 962.162,155.715 962.162,158.124C962.162,158.645 962.146,159.524 962.113,160.76C962.081,161.184 962.064,162.461 962.064,164.594C962.064,165.961 962.056,166.921 962.04,167.474C962.024,167.816 962.016,168.06 962.016,168.207C962.016,169.248 962.341,170.16 962.992,170.941C963.383,171.413 963.623,171.726 963.712,171.881C963.802,172.036 963.847,172.243 963.847,172.504C963.847,174.587 961.397,175.629 956.498,175.629C954.333,175.629 952.588,175.368 951.261,174.847C949.935,174.327 949.271,173.643 949.271,172.797C949.271,172.471 949.316,172.223 949.406,172.052C949.495,171.881 949.809,171.429 950.346,170.697C950.85,170.03 951.102,167.808 951.102,164.032C951.102,161.835 950.948,160.305 950.639,159.442C950.281,158.417 949.564,157.904 948.49,157.904C947.953,157.904 947.477,158.071 947.062,158.405C946.647,158.738 946.374,159.157 946.244,159.662C946.098,160.248 946.016,161.81 946,164.349C946.049,167.084 946.134,168.744 946.256,169.33C946.378,169.916 946.789,170.73 947.489,171.771C947.652,172.015 947.733,172.325 947.733,172.699C947.733,174.636 945.202,175.604 940.141,175.604C937.097,175.604 935.046,175.376 933.988,174.921C933.142,174.563 932.719,173.928 932.719,173.016C932.719,172.609 932.772,172.325 932.877,172.162C932.983,171.999 933.345,171.625 933.964,171.039C934.322,170.697 934.554,170.376 934.66,170.074C934.765,169.773 934.843,169.224 934.892,168.427C935.005,166.636 935.062,164.83 935.062,163.007C935.062,159.816 934.249,158.221 932.621,158.221C931.4,158.221 930.676,158.905 930.448,160.272C930.253,161.558 930.155,163.397 930.155,165.79C930.155,167.58 930.192,168.752 930.265,169.305C930.338,169.859 930.538,170.437 930.863,171.039C931.254,171.739 931.449,172.308 931.449,172.748C931.449,173.806 930.709,174.538 929.227,174.945C927.616,175.385 925.842,175.604 923.905,175.604C921.399,175.604 919.56,175.405 918.388,175.006C917.216,174.607 916.63,173.977 916.63,173.114C916.63,172.788 916.707,172.512 916.862,172.284C917.016,172.056 917.37,171.698 917.924,171.21C918.656,170.542 919.079,169.623 919.193,168.451C919.372,166.433 919.462,164.341 919.462,162.177C919.462,160.63 919.385,159.552 919.23,158.942C919.075,158.331 918.746,157.839 918.241,157.465C917.753,157.09 917.44,156.805 917.301,156.61C917.163,156.415 917.094,156.146 917.094,155.804C917.094,154.714 917.948,153.851 919.657,153.217C923.775,151.735 926.859,150.987 928.91,150.97Z" style="fill:rgb(206, 206, 153);fill-rule:nonzero;"/>
                    <path d="M979.227,150.775C982.06,150.775 984.46,151.491 986.43,152.924C987.471,153.689 988.2,154.563 988.615,155.548C989.03,156.533 989.237,157.888 989.237,159.613L989.188,163.251C989.188,165.774 989.367,167.409 989.726,168.158C989.905,168.516 990.075,168.744 990.238,168.842C990.401,168.939 990.743,169.029 991.264,169.11C991.784,169.191 992.045,169.533 992.045,170.135C992.045,170.917 991.732,171.731 991.105,172.577C990.478,173.423 989.669,174.131 988.676,174.701C987.455,175.417 986.177,175.775 984.843,175.775C983.134,175.775 981.783,175.189 980.79,174.017C980.448,173.594 980.131,173.383 979.838,173.383C979.512,173.383 979.081,173.586 978.544,173.993C976.916,175.181 975.069,175.775 973.002,175.775C970.87,175.775 969.144,175.319 967.826,174.408C966.963,173.806 966.28,173.02 965.775,172.052C965.271,171.084 965.018,170.07 965.018,169.012C965.018,167.32 965.702,165.822 967.069,164.52C969.201,162.469 972.392,161.436 976.64,161.42C977.584,161.42 978.178,161.326 978.422,161.139C978.666,160.952 978.788,160.516 978.788,159.833C978.788,158.108 978.609,156.858 978.251,156.085C977.893,155.312 977.307,154.926 976.493,154.926C976.005,154.926 975.569,155.072 975.187,155.365C974.804,155.658 974.328,156.195 973.759,156.976C972.31,159.043 970.796,160.077 969.218,160.077C968.42,160.077 967.769,159.841 967.265,159.369C966.76,158.897 966.508,158.278 966.508,157.513C966.508,156.732 966.821,155.951 967.448,155.17C968.074,154.388 968.925,153.705 969.999,153.119C972.945,151.556 976.021,150.775 979.227,150.775ZM977.592,164.911C976.876,164.911 976.253,165.204 975.724,165.79C975.195,166.376 974.931,167.076 974.931,167.889C974.931,168.671 975.118,169.301 975.492,169.781C975.866,170.262 976.363,170.502 976.981,170.502C978.283,170.502 978.935,169.403 978.935,167.206C978.935,166.311 978.841,165.708 978.654,165.399C978.467,165.09 978.113,164.927 977.592,164.911Z" style="fill:rgb(206, 206, 153);fill-rule:nonzero;"/>
                    <path d="M1007.3,152.899L1007.3,174.53C1007.3,176.727 1007.13,178.42 1006.79,179.608C1006.45,180.796 1005.86,181.74 1005.03,182.44C1004.19,183.14 1003.08,183.706 1001.73,184.137C1000.37,184.568 998.987,184.784 997.587,184.784C995.992,184.784 994.661,184.467 993.595,183.832C992.529,183.197 991.996,182.408 991.996,181.464C991.996,181.04 992.147,180.674 992.448,180.365C992.749,180.056 993.111,179.901 993.534,179.901C993.729,179.901 993.99,179.926 994.315,179.974C994.641,180.023 994.844,180.048 994.926,180.048C995.219,180.048 995.483,179.909 995.719,179.633C995.955,179.356 996.073,179.047 996.073,178.705C996.073,178.542 996.049,178.314 996,178.021C995.886,177.419 995.829,176.858 995.829,176.337L995.829,160.834C995.829,160.101 995.703,159.532 995.451,159.125C995.198,158.718 994.763,158.392 994.144,158.148C993.217,157.774 992.753,157.212 992.753,156.464C992.753,155.601 993.127,154.856 993.876,154.23C994.625,153.603 995.845,153.021 997.538,152.484C998.742,152.11 1000.21,151.76 1001.93,151.434C1003.66,151.109 1004.94,150.946 1005.77,150.946C1006.34,150.946 1006.73,151.093 1006.96,151.385C1007.19,151.678 1007.3,152.183 1007.3,152.899ZM1002.13,141.791C1003.54,141.791 1004.67,142.055 1005.5,142.584C1006.33,143.113 1006.74,143.825 1006.74,144.72C1006.74,145.974 1006.12,146.967 1004.86,147.699C1002.88,148.855 1000.48,149.432 997.66,149.432C996.488,149.432 995.544,149.205 994.828,148.749C993.884,148.147 993.412,147.333 993.412,146.307C993.412,144.908 994.413,143.809 996.415,143.011C998.449,142.198 1000.35,141.791 1002.13,141.791Z" style="fill:rgb(206, 206, 153);fill-rule:nonzero;"/>
                    <path d="M1026.66,150.775C1029.64,150.775 1032.26,151.548 1034.5,153.094C1036.11,154.201 1037.41,155.642 1038.38,157.416C1039.39,159.271 1039.9,161.208 1039.9,163.226C1039.9,166.758 1038.28,169.761 1035.04,172.235C1031.95,174.595 1028.41,175.775 1024.42,175.775C1020.53,175.775 1017.38,174.668 1014.97,172.455C1012.63,170.306 1011.45,167.507 1011.45,164.056C1011.45,160.215 1012.89,157.074 1015.75,154.633C1018.75,152.061 1022.38,150.775 1026.66,150.775ZM1024.71,156.415C1024,156.415 1023.42,156.679 1022.99,157.208C1022.56,157.737 1022.34,158.441 1022.34,159.32C1022.34,160.297 1022.53,161.627 1022.89,163.312C1023.26,164.996 1023.69,166.49 1024.2,167.792C1024.7,169.126 1025.53,169.794 1026.66,169.794C1028.11,169.794 1028.84,168.874 1028.84,167.035C1028.84,165.668 1028.65,164.113 1028.29,162.372C1027.92,160.63 1027.48,159.214 1026.96,158.124C1026.42,157.017 1025.67,156.447 1024.71,156.415Z" style="fill:rgb(206, 206, 153);fill-rule:nonzero;"/>
                    <path d="M1053.06,150.946C1053.92,150.946 1054.44,151.068 1054.63,151.312C1054.82,151.556 1054.98,152.338 1055.13,153.656C1055.21,154.372 1055.46,154.73 1055.89,154.73C1056.21,154.73 1056.52,154.494 1056.82,154.022C1058.12,151.988 1059.82,150.97 1061.92,150.97C1063.4,150.97 1064.61,151.451 1065.56,152.411C1066.01,152.883 1066.39,153.489 1066.68,154.23C1066.97,154.97 1067.12,155.682 1067.12,156.366C1067.12,157.131 1066.94,157.916 1066.58,158.722C1066.22,159.528 1065.76,160.191 1065.19,160.712C1064.15,161.705 1062.87,162.201 1061.36,162.201C1060.53,162.201 1059.83,162.054 1059.27,161.761C1058.71,161.469 1057.97,160.874 1057.06,159.979C1056.72,159.637 1056.4,159.467 1056.11,159.467C1055.65,159.467 1055.36,159.723 1055.22,160.236C1055.08,160.748 1055.01,161.827 1055.01,163.47C1055.01,165.928 1055.1,167.605 1055.28,168.5C1055.39,168.988 1055.55,169.326 1055.75,169.513C1055.96,169.7 1056.39,169.891 1057.06,170.087C1058.52,170.526 1059.26,171.291 1059.26,172.382C1059.26,173.049 1059.02,173.631 1058.55,174.127C1058.08,174.624 1057.45,174.953 1056.67,175.116C1055.11,175.441 1052.81,175.604 1049.78,175.604C1046.9,175.604 1044.71,175.352 1043.22,174.847C1041.88,174.392 1041.21,173.602 1041.21,172.479C1041.21,171.633 1041.7,170.876 1042.68,170.209C1043.15,169.899 1043.48,169.619 1043.66,169.366C1043.84,169.114 1043.96,168.768 1044.02,168.329C1044.28,166.848 1044.41,164.105 1044.41,160.101C1044.41,159.369 1044.33,158.844 1044.17,158.527C1044.01,158.209 1043.68,157.953 1043.19,157.758C1042.04,157.302 1041.46,156.643 1041.46,155.78C1041.46,154.999 1041.86,154.327 1042.65,153.766C1043.45,153.204 1044.79,152.647 1046.66,152.094C1049.17,151.345 1051.3,150.962 1053.06,150.946Z" style="fill:rgb(206, 206, 153);fill-rule:nonzero;"/>
                </g>
            </g>
        </g>
    </g>
</svg>
